<svg width="24" height="24" viewBox="0 0 24 24" fill="none" xmlns="http://www.w3.org/2000/svg">
<g clip-path="url(#clip0_1559_6102)">
<path d="M21.0681 10.577C21.0681 10.577 23.0435 10.6775 23.0435 9.51563C23.0435 7.99888 20.4118 6.63281 20.4118 6.63281C20.4118 6.63281 20.8237 5.75893 21.0815 5.27009C21.3393 4.78125 22.0625 2.87946 22.1261 2.4442C22.2065 1.89509 22.0826 1.72433 22.0826 1.72433C21.9051 2.89621 19.9966 6.2712 19.8426 6.38504C17.981 5.51451 15.423 5.27009 15.423 5.27009C15.423 5.27009 12.9185 0 10.5614 0C8.22433 0 8.23772 4.51339 8.23772 4.51339C8.23772 4.51339 7.57812 3.23438 6.74776 3.23438C5.53571 3.23438 5.13727 5.0625 5.13727 7.04799C2.74665 7.04799 0.734372 7.58371 0.553568 7.63393C0.376113 7.68415 -0.189735 8.09598 0.0647291 8.04576C0.590398 7.87835 3.04799 7.49665 5.19754 7.68415C5.31808 9.5692 6.41964 12.0268 6.41964 12.0268C6.41964 12.0268 4.0558 15.4487 4.0558 17.8895C4.0558 18.5324 4.33705 19.7076 6.03125 19.7076C7.45424 19.7076 9.05134 18.8538 9.34933 18.683C9.08817 19.0547 8.89397 19.7679 8.89397 20.096C8.89397 20.3638 9.05468 21.1239 10.1496 21.1239C11.5558 21.1239 13.1295 20.0458 13.1295 20.0458C13.1295 20.0458 14.6161 22.51 15.885 23.6384C16.2266 23.9431 16.5547 24 16.5547 24C16.5547 24 15.2924 22.7879 13.6317 19.6607C15.1752 18.7098 16.7824 16.4598 16.7824 16.4598C16.7824 16.4598 16.9732 16.4665 18.4397 16.4665C20.7366 16.4665 23.9978 15.9844 23.9978 14.1596C24.0011 12.2779 21.0681 10.577 21.0681 10.577ZM21.3225 9.44196C21.3225 10.1083 20.6897 10.1016 20.6897 10.1016L20.2076 10.1317C20.2076 10.1317 19.2935 9.6529 18.7377 9.42522C18.7377 9.42522 19.5982 8.10268 19.7991 7.73438C19.9498 7.82478 21.3225 8.68192 21.3225 9.44196ZM11.7098 2.65513C12.7913 2.65513 14.3315 5.19978 14.3315 5.19978C14.3315 5.19978 11.9275 4.98549 9.94866 6.14732C10.0022 4.31585 10.6183 2.65513 11.7098 2.65513ZM7.43415 4.71763C7.77567 4.71763 8.11049 5.13616 8.25111 5.48772C8.25111 5.7221 8.37165 7.08817 8.37165 7.08817L6.38951 7.01116C6.38951 5.22656 7.08928 4.71763 7.43415 4.71763ZM7.22656 17.1228C6.14174 17.1228 5.92076 16.5201 5.92076 15.9777C5.92076 14.7489 6.90178 13.0279 6.90178 13.0279C6.90178 13.0279 8.00334 15.3415 9.92187 16.3158C8.97098 16.875 8.18415 17.1228 7.22656 17.1228ZM10.7455 19.5435C9.98549 19.5435 9.89174 19.0513 9.89174 18.9375C9.89174 18.5859 10.1696 18.1674 10.1696 18.1674C10.1696 18.1674 11.4453 17.3069 11.5257 17.2132L12.4699 18.9743C12.4699 18.9743 11.5056 19.5435 10.7455 19.5435ZM13.1161 18.5859C12.654 17.779 12.3125 16.9353 12.3125 16.9353C12.3125 16.9353 14.2109 17.0558 15.2321 16.0045C14.596 16.2891 13.5815 16.6507 12.4029 16.5402C14.8672 14.3705 16.3069 12.7969 17.5223 11.173C17.4185 11.0458 16.8627 10.6574 16.7254 10.5938C15.9922 11.4777 13.1362 14.5279 10.4911 16.0379C7.14285 14.2132 6.43973 8.84598 6.36942 7.73103L8.19754 7.90513C8.19754 7.90513 7.51116 9.12388 7.51116 10.0212C7.51116 10.9152 7.6183 10.9621 7.6183 10.9621C7.6183 10.9621 7.59486 9.40179 8.55915 8.19643C9.29576 12.1071 10.0625 14.1094 10.6585 15.3047C10.9632 15.1775 11.529 14.9263 11.529 14.9263C11.529 14.9263 9.84151 10.0614 9.93526 6.77009C10.702 6.36161 11.8371 5.93973 13.1161 5.93973C16.4844 5.93973 19.1931 7.38616 19.1931 7.38616L18.135 8.86607C18.135 8.86607 17.1908 7.15848 15.8549 6.85379C16.558 7.37612 17.3482 8.0692 17.7567 9.06362C14.9643 7.97545 11.596 7.39955 10.5145 7.27232C10.4208 7.67076 10.4341 8.23996 10.4341 8.23996C10.4341 8.23996 14.9509 9.07366 18.2388 10.952C18.2154 15.0636 13.7355 18.221 13.1161 18.5859ZM17.3951 15.5123C17.3951 15.5123 18.798 13.6741 18.7746 11.2366C18.7746 11.2366 21.0413 12.6395 21.0413 14.0089C21.0413 15.5357 17.3951 15.5123 17.3951 15.5123Z" fill="white"/>
</g>
<defs>
<clipPath id="clip0_1559_6102">
<rect width="24" height="24" fill="white"/>
</clipPath>
</defs>
</svg>
