<svg width="24" height="24" viewBox="0 0 24 24" fill="none" xmlns="http://www.w3.org/2000/svg">
<g clip-path="url(#clip0_504_12881)">
<path d="M12 0C5.37 0 0 5.37 0 12C0 18.63 5.37 24 12 24C18.63 24 24 18.63 24 12C24 5.37 18.63 0 12 0ZM7.3425 7.4025L14.235 7.395L13.1025 9.195H6.2175L7.3425 7.4025ZM18.66 15.69C18.6075 15.6075 17.6775 14.1375 17.625 14.07C17.5425 14.07 14.7 14.07 14.4675 14.07C14.46 14.07 14.4525 14.07 14.4525 14.07L15.5775 12.2775C15.5775 12.2775 16.2825 12.2775 16.4775 12.2775C16.35 12.075 15.5775 10.845 15.4575 10.665C15.3225 10.875 12.4425 15.48 12.285 15.72H3.6225L5.6775 12.4575H4.1625L5.295 10.665L11.805 10.6575L10.665 12.4575C10.53 12.4575 7.92 12.4575 7.8375 12.4575C7.8 12.525 7.035 13.7175 6.9075 13.9275C7.185 13.9275 11.1825 13.92 11.265 13.92C11.31 13.845 15.255 7.59 15.465 7.2675L20.8125 15.6975H18.66V15.69Z" fill="white"/>
</g>
<defs>
<clipPath id="clip0_504_12881">
<rect width="24" height="24" fill="white"/>
</clipPath>
</defs>
</svg>
