<svg width="24" height="24" viewBox="0 0 24 24" fill="none" xmlns="http://www.w3.org/2000/svg">
<g clip-path="url(#clip0_504_12893)">
<path fill-rule="evenodd" clip-rule="evenodd" d="M3.40705 0H20.5929C21.9859 0 22.5 0.506308 22.5 1.87885V18.4408C22.5 18.5961 22.4935 18.7404 22.4797 18.8741C22.4771 18.899 22.4746 18.9238 22.4721 18.9485V18.9488C22.445 19.2224 22.4184 19.4915 22.159 19.7945C22.1315 19.8269 21.8426 20.0386 21.8426 20.0386C21.8146 20.0521 21.7881 20.065 21.7626 20.0774C21.6467 20.1341 21.5495 20.1814 21.4059 20.2383L12.9433 23.7302C12.504 23.9286 12.3203 24.0059 12.0012 23.9996V23.9997H12H11.9987V23.9996C11.6796 24.0059 11.4959 23.9286 11.0566 23.7302L2.59405 20.2383C2.45026 20.1813 2.35303 20.1339 2.23693 20.0773C2.21154 20.0648 2.18525 20.052 2.15737 20.0386C2.15737 20.0386 1.86853 19.8269 1.84089 19.7945C1.58156 19.4915 1.55492 19.2224 1.52786 18.9488C1.5254 18.9239 1.52294 18.899 1.5203 18.8741C1.50636 18.7404 1.5 18.5961 1.5 18.4408V1.87885C1.5 0.506308 2.01408 0 3.40705 0ZM19.438 16.6891L19.4418 16.6508L19.4457 16.6088V16.5668V16.5591V16.5171L19.4418 16.4751L19.438 16.4369L19.4302 16.3987L19.4225 16.3605L19.4147 16.3261L19.4032 16.2917L19.3916 16.2574L19.3762 16.2268L19.3568 16.1924L19.3375 16.1618L19.3143 16.1275L19.2912 16.0969L19.2641 16.0702L19.2372 16.0396L19.2062 16.0129L19.1753 15.9861L19.1445 15.967L19.1135 15.9441L19.0827 15.925L19.048 15.9059L19.0131 15.8868L18.9746 15.8677L18.936 15.8525L18.8974 15.8333L18.8548 15.8183L18.8201 15.8068L18.7854 15.7953L18.7466 15.7839L18.712 15.7724L18.6734 15.761L18.6348 15.7495L18.596 15.7418L18.5536 15.7304L18.515 15.719L18.4726 15.7113L18.4301 15.6998L18.3878 15.6884L18.345 15.677L18.3064 15.6692L18.2718 15.6578L18.2369 15.6502L18.2061 15.6387L18.1753 15.6311L18.1289 15.6158L18.0863 15.6005L18.0477 15.5852L18.017 15.5661L17.982 15.5471L17.9551 15.5203L17.9395 15.4973L17.9204 15.4553L17.9165 15.4057V15.398L17.9204 15.3599L17.9356 15.3254L17.959 15.2911L17.9936 15.2605L18.0208 15.2453L18.0516 15.23L18.0863 15.2223L18.1251 15.2147L18.1675 15.207H18.2138H18.2524L18.2871 15.2108L18.3259 15.2147L18.3644 15.2185L18.403 15.2261L18.4415 15.2338L18.4804 15.2414L18.5189 15.2528L18.5575 15.2644L18.5999 15.2758L18.631 15.2911L18.6656 15.3026L18.6964 15.3178L18.7313 15.3331L18.7621 15.3484L18.7968 15.3637L18.8279 15.3828L18.8625 15.398L18.8936 15.421L18.9244 15.44L18.959 15.4592L18.9901 15.482L19.0131 15.4515L19.0325 15.421L19.0555 15.3904L19.0788 15.3599L19.1018 15.3254L19.1213 15.2949L19.1445 15.2644L19.1676 15.2338L19.187 15.2032L19.21 15.1727L19.2333 15.1421L19.2527 15.1115L19.2757 15.0772L19.299 15.0466L19.3221 15.0161L19.3414 14.9855L19.3645 14.9549L19.3337 14.932L19.3029 14.9091L19.2719 14.8861L19.241 14.867L19.2062 14.8442L19.1753 14.825L19.1407 14.8059L19.1057 14.7868L19.075 14.7716L19.0402 14.7524L19.0015 14.7371L18.9667 14.7218L18.9321 14.7066L18.8974 14.6951L18.8587 14.6798L18.8239 14.6722L18.7892 14.6607L18.7505 14.6493L18.7158 14.6417L18.6772 14.634L18.6387 14.6264L18.6038 14.6187L18.5652 14.6111L18.5228 14.6072L18.4842 14.5997L18.4415 14.5958H18.403L18.3605 14.5919L18.3181 14.5882H18.2757H18.2332H18.1906H18.152L18.1135 14.5919L18.0749 14.5958L18.0361 14.5997L17.9975 14.6034L17.9629 14.6111L17.9243 14.6187L17.8895 14.6264L17.8547 14.634L17.8239 14.6417L17.7889 14.6531L17.7504 14.6684L17.7119 14.6798L17.677 14.6951L17.6423 14.7142L17.6076 14.7295L17.5727 14.7486L17.5419 14.7677L17.5111 14.7906L17.48 14.8136L17.4531 14.8326L17.4221 14.8594L17.3951 14.89L17.368 14.9167L17.3411 14.9473L17.3178 14.9778L17.2948 15.0084L17.2754 15.0428L17.2562 15.0772L17.2407 15.1115L17.2252 15.1459L17.2099 15.1803L17.2021 15.2147L17.1905 15.2491L17.1827 15.2834L17.175 15.3178L17.1711 15.356L17.1672 15.3904L17.1634 15.4286V15.4668V15.4745V15.5165L17.1672 15.5585L17.1711 15.5967L17.175 15.6349L17.1827 15.6692L17.1905 15.7075L17.2021 15.738L17.2136 15.7724L17.2252 15.803L17.2407 15.8295L17.26 15.8639L17.2792 15.8945L17.2987 15.9212L17.3217 15.9479L17.3449 15.9746L17.372 16.0014L17.399 16.0281L17.426 16.0511L17.457 16.0702L17.4878 16.0931L17.5225 16.1122L17.5535 16.1313L17.5921 16.1504L17.6267 16.1695L17.6655 16.1848L17.7041 16.2L17.7427 16.2153L17.7851 16.2306L17.82 16.2421L17.8547 16.2536L17.8895 16.265L17.9279 16.2727L17.9629 16.2841L18.0014 16.2956L18.04 16.3032L18.0788 16.3147L18.1173 16.3223L18.1597 16.3338L18.1984 16.3414L18.2407 16.3529L18.2795 16.3605L18.3181 16.372L18.3528 16.3796L18.3878 16.3911L18.4185 16.3987L18.4454 16.4064L18.4917 16.4255L18.5306 16.4408L18.5652 16.4561L18.596 16.4713L18.6271 16.4942L18.654 16.5171L18.6734 16.5439L18.6889 16.5821L18.6927 16.6279V16.6355L18.6889 16.6738L18.6772 16.7081L18.6617 16.7387L18.6387 16.7654L18.6077 16.7884L18.5807 16.8036L18.5497 16.8151L18.515 16.8227L18.4804 16.8304L18.4415 16.838L18.3991 16.8419H18.3528H18.3142L18.2718 16.838H18.2332L18.1945 16.8304L18.152 16.8266L18.1135 16.8189L18.0749 16.8113L18.0361 16.8036L18.0014 16.7922L17.9629 16.7807L17.9243 16.7693L17.8895 16.754L17.8547 16.7426L17.82 16.7273L17.7851 16.712L17.7504 16.6967L17.7197 16.6775L17.6847 16.6623L17.6539 16.6432L17.6192 16.6203L17.5882 16.6012L17.5535 16.5783L17.5225 16.5554L17.4878 16.5324L17.457 16.5095L17.4337 16.5401L17.4068 16.5668L17.3835 16.5974L17.3566 16.6279L17.3333 16.6547L17.3103 16.6853L17.2832 16.7158L17.26 16.7426L17.2329 16.7731L17.2099 16.7998L17.1827 16.8304L17.1597 16.861L17.1364 16.8877L17.1094 16.9182L17.0862 16.9488L17.0593 16.9756L17.036 17.0061L17.0669 17.0329L17.0939 17.0558L17.1248 17.0787L17.1558 17.1017L17.1866 17.1245L17.2175 17.1475L17.2484 17.1665L17.2792 17.1857L17.3142 17.2048L17.3449 17.2238L17.3797 17.243L17.4146 17.2583L17.4493 17.2771L17.4839 17.2924L17.5188 17.3077L17.5574 17.323L17.5921 17.3344L17.6306 17.3459L17.6655 17.3612L17.7041 17.3726L17.7427 17.3841L17.7774 17.3918L17.8161 17.4032L17.8547 17.4108L17.8932 17.4185L17.9318 17.4261L17.9706 17.4338L18.0091 17.4376L18.0477 17.4452L18.0901 17.4491L18.1289 17.4529L18.1675 17.4567H18.2099L18.2486 17.4605H18.2871H18.3297H18.3722H18.4107L18.4493 17.4567L18.4917 17.4529L18.5306 17.4491L18.5652 17.4452L18.6038 17.4414L18.6426 17.4338L18.6772 17.4261L18.712 17.4185L18.7505 17.4108L18.7854 17.3994L18.8239 17.3879L18.8625 17.3765L18.9011 17.3612L18.9399 17.3459L18.9746 17.3268L19.0092 17.3115L19.0442 17.2924L19.075 17.2694L19.1057 17.2506L19.1368 17.2277L19.1637 17.2048L19.1947 17.178L19.2178 17.1551L19.2449 17.1284L19.268 17.1017L19.2874 17.0711L19.3104 17.0405L19.3298 17.0099L19.3492 16.9794L19.3645 16.9451L19.38 16.9145L19.3955 16.88L19.4072 16.8419L19.4147 16.8074L19.4263 16.7693L19.4341 16.731L19.438 16.6891ZM16.6949 17.4147H16.7337H16.7723V17.3765V17.342V17.3039V17.2657V17.2277V17.1933V17.1551V17.117V17.0825V17.0443V17.0061V16.9718V16.9335V16.8953V16.8572V16.8227V16.7845H16.7337H16.6949H16.6564H16.6178H16.5793H16.5404H16.5019H16.4633H16.4248H16.3821H16.3436H16.305H16.2665H16.2276H16.1891H16.1505H16.1119H16.0732H16.0346H15.9961H15.9575H15.9189H15.8801H15.8416H15.803H15.7645H15.7256H15.6871H15.6485H15.6061H15.5673H15.5287H15.4902H15.4516H15.4129H15.3743H15.3357H15.2971H15.2584V16.7463V16.7043V16.6661V16.6279V16.5859V16.5477V16.5095V16.4675V16.4293V16.3911V16.349V16.3109H15.2971H15.3357H15.3743H15.4129H15.4516H15.4902H15.5287H15.5673H15.6022H15.6408H15.6793H15.7179H15.7567H15.7952H15.8338H15.8723H15.9112H15.9497H15.9883H16.0268H16.0656H16.1042H16.1428H16.1813H16.2201H16.2586H16.2934H16.3319H16.3707H16.4093H16.4478H16.4864H16.5251H16.5637H16.6023V16.2727V16.2383V16.2V16.1618V16.1275V16.0892V16.0511V16.0129V15.9785V15.9403V15.9021V15.8677V15.8295V15.7915V15.7571V15.719H16.5637H16.5251H16.4864H16.4478H16.4093H16.3707H16.3319H16.2934H16.2586H16.2201H16.1813H16.1428H16.1042H16.0656H16.0268H15.9883H15.9497H15.9112H15.8723H15.8338H15.7952H15.7567H15.7179H15.6793H15.6408H15.6022H15.5673H15.5287H15.4902H15.4516H15.4129H15.3743H15.3357H15.2971H15.2584V15.6807V15.6425V15.6043V15.5661V15.5279V15.4898V15.4553V15.4172V15.3789V15.3407V15.3026V15.2644H15.2971H15.3357H15.3743H15.4129H15.4516H15.4902H15.5249H15.5634H15.6022H15.6408H15.6793H15.7179H15.7567H15.7952H15.8338H15.8723H15.9112H15.9497H15.9883H16.0229H16.0618H16.1003H16.1389H16.1774H16.2162H16.2548H16.2934H16.3319H16.3707H16.4093H16.4478H16.4864H16.5213H16.5598H16.5984H16.6369H16.6757H16.7144H16.7529V15.2261V15.1918V15.1535V15.1154V15.0772V15.0428V15.0046V14.9663V14.932V14.8938V14.8556V14.8211V14.783V14.7448V14.7066V14.6722V14.634H16.7144H16.6757H16.6369H16.5984H16.5598H16.5213H16.4825H16.4439H16.4053H16.3668H16.328H16.2895H16.2509H16.2124H16.1774H16.1389H16.1003H16.0618H16.0229H15.9844H15.9458H15.9073H15.8685H15.8299H15.7913H15.7528H15.7142H15.6755H15.6369H15.5984H15.5598H15.5209H15.4824H15.4439H15.4053H15.3665H15.3279H15.2893H15.2508H15.2121H15.1735H15.1349H15.0963H15.0614H15.0229H14.9844H14.9458H14.907H14.8684H14.8298H14.7913H14.7525H14.714H14.6753H14.6369H14.5981H14.5595H14.521V14.6722V14.7104V14.7486V14.7868V14.825V14.8632V14.9014V14.9396V14.9778V15.0161V15.0542V15.0924V15.1306V15.1688V15.207V15.2453V15.2834V15.3216V15.356V15.3942V15.4324V15.4706V15.5088V15.5471V15.5852V15.6235V15.6617V15.6998V15.738V15.7763V15.8144V15.8525V15.8906V15.9288V15.967V16.0052V16.0434V16.0816V16.1198V16.158V16.1963V16.2344V16.2727V16.3109V16.349V16.3872V16.4255V16.4636V16.5018V16.5401V16.5783V16.6165V16.6547V16.6928V16.7273V16.7654V16.8036V16.8419V16.88V16.9182V16.9565V16.9947V17.0329V17.0711V17.1093V17.1475V17.1857V17.2238V17.2621V17.3V17.3382V17.3765V17.4147H14.5595H14.5981H14.6369H14.6753H14.714H14.7525H14.7913H14.8298H14.8684H14.9108H14.9494H14.9882H15.0268H15.0653H15.1039H15.1427H15.1813H15.2198H15.2584H15.2971H15.3357H15.3743H15.4129H15.4516H15.4902H15.5287H15.5673H15.6061H15.6485H15.6871H15.7256H15.7645H15.803H15.8416H15.8801H15.9189H15.9575H15.9961H16.0346H16.0732H16.1119H16.1505H16.1891H16.2276H16.2665H16.305H16.3436H16.3821H16.4248H16.4633H16.5019H16.5404H16.5793H16.6178H16.6564H16.6949ZM13.8736 17.4147H13.9121H13.9507V17.3765V17.3382V17.3V17.2621V17.2238V17.1857V17.1475V17.1093V17.0711V17.0329V16.9947V16.9565V16.9182V16.88V16.8419V16.8036V16.7654V16.7273V16.6928V16.6547V16.6165V16.5783V16.5401V16.5018V16.4636V16.4255V16.3872V16.349V16.3109V16.2727V16.2344V16.1963V16.158V16.1198V16.0816V16.0434V16.0052V15.967V15.9288V15.8906V15.8525V15.8144V15.7763V15.738V15.6998V15.6617V15.6235V15.5852V15.5471V15.5088V15.4706V15.4324V15.3942V15.356V15.3216V15.2834V15.2453V15.207V15.1688V15.1306V15.0924V15.0542V15.0161V14.9778V14.9396V14.9014V14.8632V14.825V14.7868V14.7486V14.7104V14.6722V14.634H13.9121H13.8736H13.8387H13.8001H13.7616H13.723H13.6881H13.6495H13.611H13.5724H13.5375H13.499H13.4604H13.4219H13.3869H13.3484H13.3098H13.2712H13.2364H13.1978H13.1592L13.1399 14.6645L13.1206 14.6989L13.0974 14.7293L13.078 14.7636L13.0589 14.7942L13.0394 14.8286L13.0164 14.8589L12.997 14.8934L12.9776 14.9239L12.9584 14.9545L12.9352 14.9886L12.916 15.0192L12.8966 15.0536L12.8772 15.0841L12.8542 15.1183L12.8348 15.1488L12.8156 15.1793L12.7962 15.2135L12.7768 15.2441L12.7537 15.2785L12.7344 15.3091L12.715 15.3432L12.6958 15.3738L12.6725 15.4082L12.6534 15.4385L12.634 15.4691L12.6146 15.5034L12.5915 15.534L12.5722 15.5684L12.5529 15.5987L12.5336 15.6331L12.5105 15.6637L12.4912 15.6978L12.4718 15.7284L12.4526 15.6978L12.4332 15.6637L12.4099 15.6331L12.3907 15.5987L12.3713 15.5684L12.3522 15.534L12.3328 15.5034L12.3095 15.4691L12.2903 15.4385L12.2709 15.4082L12.2518 15.3738L12.2324 15.3432L12.2092 15.3091L12.1899 15.2785L12.1705 15.2441L12.1514 15.2135L12.132 15.1793L12.1088 15.1488L12.0896 15.1183L12.0702 15.0841L12.0508 15.0536L12.0278 15.0192L12.0083 14.9886L11.9892 14.9545L11.9698 14.9239L11.9504 14.8934L11.9273 14.8589L11.9079 14.8286L11.8888 14.7942L11.8694 14.7636L11.8499 14.7293L11.8269 14.6989L11.8075 14.6645L11.7884 14.634H11.7496H11.711H11.6764H11.6378H11.599H11.5604H11.5258H11.4872H11.4484H11.4098H11.3752H11.3366H11.2978H11.2592H11.2246H11.1858H11.1472H11.1087H11.074H11.0352H10.9966V14.6722V14.7104V14.7486V14.7868V14.825V14.8632V14.9014V14.9396V14.9778V15.0161V15.0542V15.0924V15.1306V15.1688V15.207V15.2453V15.2834V15.3216V15.356V15.3942V15.4324V15.4706V15.5088V15.5471V15.5852V15.6235V15.6617V15.6998V15.738V15.7763V15.8144V15.8525V15.8906V15.9288V15.967V16.0052V16.0434V16.0816V16.1198V16.158V16.1963V16.2344V16.2727V16.3109V16.349V16.3872V16.4255V16.4636V16.5018V16.5401V16.5783V16.6165V16.6547V16.6928V16.7273V16.7654V16.8036V16.8419V16.88V16.9182V16.9565V16.9947V17.0329V17.0711V17.1093V17.1475V17.1857V17.2238V17.2621V17.3V17.3382V17.3765V17.4147H11.0352H11.074H11.1125H11.1511H11.1897H11.2285H11.267H11.3056H11.3441H11.3829H11.4215H11.4601H11.4986H11.5374H11.5759H11.6145H11.6531H11.6918H11.7304V17.3765V17.3382V17.3V17.2619V17.2234V17.1852V17.147V17.1088V17.0706V17.0324V16.998V16.9596V16.9214V16.8832V16.845V16.8068V16.7684V16.7302V16.6919V16.6538V16.6156V16.5773V16.5389V16.5008V16.4625V16.4243V16.3862V16.3479V16.3095V16.2713V16.2331V16.1949V16.1605V16.1223V16.0839V16.0457V16.0075V15.9693V15.9311V15.8927V15.8544V15.8162V15.7781L11.7534 15.8086L11.7729 15.8432L11.7959 15.8738L11.8153 15.9081L11.8386 15.9387L11.8577 15.9731L11.8811 16.0039L11.9002 16.0382L11.9234 16.0688L11.9429 16.1032L11.9659 16.1338L11.9853 16.1684L12.0083 16.199L12.0278 16.2333L12.0508 16.2639L12.0702 16.2985L12.0934 16.329L12.1165 16.3634L12.1359 16.394L12.1589 16.4286L12.1784 16.4591L12.2016 16.4936L12.2207 16.5241L12.244 16.5587L12.2632 16.5893L12.2864 16.6236L12.3059 16.6542L12.3289 16.6886L12.3483 16.7194L12.3713 16.7537L12.3907 16.7843L12.4138 16.8187L12.4332 16.8495L12.4565 16.8839H12.4718L12.4912 16.8533L12.5142 16.8187L12.5336 16.7882L12.5569 16.7576L12.576 16.7232L12.5992 16.6926L12.6185 16.6619L12.6379 16.6275L12.6611 16.5969L12.6803 16.5663L12.7036 16.5356L12.7228 16.5012L12.746 16.4706L12.7654 16.44L12.7846 16.4054L12.8078 16.3749L12.827 16.3443L12.8503 16.31L12.8694 16.2794L12.8927 16.2486L12.9121 16.2142L12.9313 16.1837L12.9546 16.1531L12.9737 16.1185L12.997 16.0879L13.0164 16.0574L13.0394 16.0268L13.0589 15.9922L13.078 15.9617L13.1013 15.9311L13.1206 15.8967L13.1437 15.8661L13.1631 15.8356L13.1862 15.8009L13.2055 15.7703V15.8086V15.8468V15.885V15.9234V15.9617V15.9998V16.0381V16.0763V16.1147V16.1529V16.1911V16.2293V16.2674V16.3057V16.3441V16.3823V16.4205V16.4587V16.4969V16.5351V16.5735V16.6118V16.6499V16.6881V16.7263V16.7645V16.8029V16.8412V16.8794V16.9176V16.9558V16.9942V17.0324V17.0706V17.1088V17.147V17.1852V17.2234V17.2619V17.3V17.3382V17.3765V17.4147H13.2441H13.2826H13.3214H13.3639H13.4024H13.441H13.4797H13.5184H13.5569H13.5994H13.6379H13.6767H13.7153H13.7539H13.7924H13.835H13.8736ZM9.42 16.2342L9.43162 16.2689L9.44715 16.3032H9.4086H9.36983H9.33127H9.29265H9.2541H9.21555H9.17677H9.13823H9.10357H9.06472H9.02617H8.98762H8.94908H8.9103H8.87168H8.83313H8.79457L8.80988 16.2689L8.8215 16.2342L8.83702 16.196L8.85255 16.1616L8.86395 16.127L8.8794 16.0926L8.895 16.0544L8.9103 16.0198L8.92185 15.9854L8.93738 15.9511L8.9529 15.9165L8.9643 15.8783L8.97983 15.8439L8.99535 15.8093L9.00705 15.7749L9.02227 15.7405L9.0378 15.7021L9.05333 15.6677L9.06472 15.6333L9.08025 15.5987L9.09577 15.5605L9.1074 15.5259L9.1227 15.4916L9.13823 15.5259L9.14985 15.5605L9.16508 15.5987L9.18068 15.6333L9.1923 15.6677L9.20775 15.7021L9.22312 15.7405L9.23467 15.7749L9.2502 15.8093L9.26572 15.8439L9.27713 15.8783L9.29265 15.9165L9.30435 15.9511L9.31957 15.9854L9.3351 16.0198L9.3468 16.0544L9.36225 16.0926L9.37755 16.127L9.38917 16.1616L9.4047 16.196L9.42 16.2342ZM10.6056 17.4147H10.6444H10.6828L10.6674 17.3803L10.6519 17.3459L10.6367 17.3115L10.625 17.2733L10.6094 17.2391L10.5939 17.2048L10.5786 17.1704L10.5631 17.136L10.5476 17.1017L10.5323 17.0634L10.5168 17.029L10.5051 16.9947L10.4899 16.9603L10.4743 16.9259L10.4588 16.8915L10.4434 16.8533L10.4281 16.8189L10.4125 16.7845L10.397 16.7501L10.3856 16.7158L10.3701 16.6814L10.3546 16.6432L10.3391 16.6088L10.3238 16.5744L10.3082 16.5401L10.2928 16.5056L10.2774 16.4713L10.2659 16.433L10.2503 16.3987L10.235 16.3643L10.2195 16.3299L10.204 16.2956L10.1884 16.2611L10.1732 16.223L10.1577 16.1886L10.146 16.1542L10.1308 16.1198L10.1153 16.0855L10.0997 16.0511L10.0842 16.0129L10.0689 15.9785L10.0534 15.9441L10.0378 15.9097L10.0265 15.8753L10.0109 15.8409L9.9954 15.8068L9.98018 15.7686L9.96465 15.7343L9.94905 15.6998L9.9336 15.6654L9.9183 15.6311L9.90668 15.5967L9.89115 15.5585L9.87585 15.5241L9.86032 15.4898L9.84488 15.4553L9.82935 15.421L9.81398 15.3866L9.79852 15.3484L9.7869 15.314L9.7716 15.2796L9.75607 15.2453L9.74055 15.2108L9.72532 15.1765L9.7098 15.1383L9.69427 15.1039L9.67875 15.0695L9.66735 15.0351L9.65182 15.0008L9.6363 14.9663L9.621 14.9282L9.60547 14.8938L9.58995 14.8594L9.57442 14.825L9.5592 14.7906L9.5475 14.7563L9.53205 14.718L9.51675 14.6837L9.50122 14.6493L9.4857 14.6149H9.44715H9.41243H9.37365H9.3351H9.29655H9.26183H9.22312H9.1845H9.14603H9.1113H9.07245H9.0339H8.99535H8.9607H8.92185H8.8833H8.84475H8.80988H8.77133L8.75602 14.6493L8.7405 14.6837L8.72505 14.718L8.71335 14.7563L8.69805 14.7906L8.6826 14.825L8.66708 14.8594L8.65177 14.8938L8.63625 14.9282L8.62072 14.9663L8.6052 15.0008L8.5938 15.0351L8.57828 15.0695L8.56275 15.1039L8.54745 15.1383L8.53193 15.1765L8.5164 15.2108L8.5011 15.2453L8.48565 15.2796L8.47403 15.314L8.4585 15.3484L8.4432 15.3866L8.42768 15.421L8.41215 15.4553L8.39685 15.4898L8.38133 15.5241L8.3658 15.5585L8.35417 15.5967L8.33895 15.6311L8.32335 15.6654L8.3079 15.6998L8.2926 15.7343L8.27708 15.7686L8.26163 15.8068L8.24625 15.8409L8.23462 15.8753L8.2191 15.9097L8.20365 15.9441L8.18835 15.9785L8.17283 16.0129L8.1573 16.0511L8.142 16.0855L8.12648 16.1198L8.11485 16.1542L8.09933 16.1886L8.08402 16.223L8.06857 16.2611L8.05305 16.2956L8.03775 16.3299L8.02222 16.3643L8.0067 16.3987L7.99508 16.433L7.97977 16.4713L7.96425 16.5056L7.94872 16.5401L7.9335 16.5744L7.91797 16.6088L7.90238 16.6432L7.88715 16.6814L7.87552 16.7158L7.86 16.7501L7.84447 16.7845L7.82917 16.8189L7.81365 16.8533L7.79813 16.8915L7.7829 16.9259L7.7673 16.9603L7.75575 16.9947L7.74022 17.029L7.72493 17.0634L7.7094 17.1017L7.69388 17.136L7.67858 17.1704L7.66313 17.2048L7.6476 17.2391L7.6359 17.2733L7.6206 17.3115L7.60515 17.3459L7.58963 17.3803L7.57433 17.4147H7.61287H7.6515H7.69005H7.72883H7.77128H7.80982H7.8483H7.88715H7.9257H7.96425H8.0028H8.04158H8.0802H8.11875H8.1612H8.19975H8.23853H8.27708H8.31562H8.35417L8.3697 17.3803L8.38133 17.3459L8.39685 17.3115L8.41215 17.2733L8.42377 17.2391L8.4393 17.2048L8.4546 17.1704L8.46622 17.136L8.48175 17.1017L8.49728 17.0672L8.50868 17.0329L8.5242 16.9947L8.53973 16.9603L8.55135 16.9259L8.56665 16.8915H8.6052H8.64398H8.6826H8.72108H8.75602H8.79457H8.83313H8.87168H8.9103H8.94908H8.98762H9.02617H9.06472H9.10357H9.13823H9.17677H9.21555H9.2541H9.29265H9.33127H9.36983H9.4086H9.44715H9.4857H9.52065H9.5592H9.59775H9.6363H9.67485L9.69037 16.9259L9.702 16.9603L9.71753 16.9947L9.73283 17.0329L9.74445 17.0672L9.75998 17.1017L9.77542 17.136L9.7869 17.1704L9.80242 17.2048L9.81787 17.2391L9.82935 17.2733L9.84488 17.3115L9.86032 17.3459L9.87195 17.3803L9.88733 17.4147H9.9261H9.96465H9.9993H10.0378H10.0766H10.1153H10.1538H10.1884H10.2272H10.2659H10.3044H10.3429H10.3817H10.4164H10.455H10.4935H10.5323H10.5709H10.6056ZM7.23028 17.0825L7.2613 17.0596L7.28821 17.0367V16.9985V16.9603V16.9221V16.8877V16.8495V16.8113V16.7731V16.7349V16.6967V16.6623V16.6241V16.5859V16.5477V16.5095V16.4713V16.433V16.3987V16.3605V16.3223V16.2841V16.2459V16.2077V16.1695V16.1351V16.0969V16.0587V16.0205V15.9823V15.9441V15.9097V15.8715V15.8333V15.7953H7.24962H7.21107H7.1723H7.13375H7.09517H7.05661H7.0178H6.97925H6.9407H6.90211H6.86335H6.8248H6.78625H6.74765H6.70889H6.67033H6.63178H6.5932H6.55438H6.51584H6.47729H6.43874H6.39998H6.36138H6.32283H6.28428H6.24547H6.20692H6.16833H6.12983H6.09123H6.05246H6.01387V15.8333V15.8677V15.9059V15.9441V15.9823V16.0167V16.0549V16.0931V16.1313V16.1657V16.2039V16.2421V16.2803V16.3147V16.3529H6.05246H6.08734H6.12593H6.16448H6.20307H6.23794H6.27649H6.31504H6.35363H6.38855H6.4271H6.46564H6.50424H6.53911H6.57771V16.3911V16.4293V16.4675V16.5056V16.5477V16.5859V16.6241V16.6623V16.7005L6.54685 16.7196L6.51973 16.7349L6.48508 16.7501L6.45406 16.7654L6.41931 16.7807L6.38465 16.7884L6.3461 16.7998L6.3073 16.8074L6.26875 16.8151L6.2302 16.8189L6.18776 16.8227L6.14505 16.8266H6.09876H6.05631L6.01387 16.8227L5.97532 16.8189L5.93677 16.8113L5.89796 16.8036L5.85941 16.7922L5.82082 16.7807L5.78595 16.7654L5.75129 16.7501L5.71655 16.7349L5.68553 16.7158L5.65477 16.6967L5.62397 16.6738L5.5929 16.6508L5.56603 16.6279L5.54271 16.6012L5.5158 16.5744L5.49252 16.5477L5.46946 16.5171L5.45008 16.4866L5.4307 16.4561L5.41153 16.4216L5.39604 16.3872L5.38051 16.349L5.36909 16.3185L5.35745 16.2841L5.3497 16.2497L5.34191 16.2153L5.33417 16.181L5.33027 16.1428L5.32643 16.1084L5.32279 16.0702V16.0319V16.0244V15.9823L5.32643 15.9441L5.33027 15.9059L5.33807 15.8639L5.3458 15.8295L5.35355 15.7915L5.36519 15.7533L5.38051 15.719L5.39215 15.6845L5.40763 15.6502L5.42706 15.6196L5.44619 15.5852L5.46556 15.5547L5.48478 15.5279L5.50805 15.4973L5.53496 15.4706L5.55824 15.4439L5.58515 15.421L5.61232 15.398L5.63924 15.3752L5.6703 15.356L5.70106 15.3369L5.73208 15.3178L5.76678 15.3026L5.80148 15.2873L5.83613 15.2758L5.87105 15.2644L5.90575 15.2567L5.9443 15.2491L5.97922 15.2453L6.01777 15.2414H6.05631H6.09876L6.14142 15.2453L6.18386 15.2491L6.22246 15.2528L6.261 15.2605L6.29955 15.2681L6.33447 15.2758L6.36912 15.2873L6.40382 15.2987L6.43484 15.3101L6.46564 15.3254L6.49667 15.3407L6.53132 15.3599L6.56218 15.3789L6.5932 15.398L6.624 15.4172L6.6548 15.44L6.68583 15.4592L6.71663 15.4859L6.74765 15.5088L6.77072 15.4783L6.79784 15.4515L6.82094 15.421L6.84807 15.3904L6.87109 15.3599L6.89437 15.3331L6.92132 15.3026L6.94455 15.272L6.9715 15.2414L6.99478 15.2147L7.0178 15.1841L7.04498 15.1535L7.06803 15.1268L7.09131 15.0962L7.11822 15.0656L7.1415 15.0351L7.16841 15.0084L7.19168 14.9778L7.16088 14.9549L7.12986 14.9282L7.09906 14.9052L7.06803 14.8823L7.03723 14.8632L7.00642 14.8403L6.9715 14.8211L6.9407 14.8021L6.90604 14.783L6.87498 14.7639L6.84033 14.7486L6.80563 14.7295L6.77072 14.7142L6.73606 14.6989L6.70136 14.6837L6.66644 14.6722L6.63564 14.6607L6.60098 14.6531L6.56607 14.6417L6.53132 14.634L6.49667 14.6264L6.4618 14.6187L6.4232 14.6111L6.38465 14.6034L6.34974 14.5997L6.3073 14.5919L6.26875 14.5882H6.2302L6.18776 14.5844L6.14505 14.5805H6.10261H6.06021H6.02166H5.97922L5.9404 14.5844L5.90181 14.5882L5.86331 14.5919L5.82471 14.5958L5.78595 14.6034L5.74735 14.6072L5.70881 14.6149L5.67411 14.6264L5.63534 14.634L5.60069 14.6454L5.56603 14.6531L5.53107 14.6684L5.49252 14.6798L5.46172 14.6913L5.42312 14.7104L5.38826 14.7257L5.35355 14.741L5.31889 14.7601L5.28398 14.7791L5.24928 14.7983L5.21852 14.8174L5.18746 14.8364L5.15665 14.8594L5.12563 14.8785L5.09482 14.9014L5.06787 14.9243L5.03685 14.9511L5.00994 14.974L4.98281 15.0008L4.95586 15.0275L4.93258 15.0542L4.90567 15.0809L4.88239 15.1077L4.85933 15.1383L4.83605 15.1688L4.81304 15.1994L4.79361 15.23L4.77427 15.2605L4.75506 15.2911L4.73568 15.3216L4.71629 15.356L4.70102 15.3904L4.68549 15.4248L4.67 15.4592L4.65469 15.4935L4.63916 15.5318L4.62752 15.5661L4.61588 15.6043L4.6045 15.6387L4.59671 15.677L4.58507 15.7151L4.57732 15.7495L4.57348 15.7877L4.56573 15.8257L4.56179 15.8677L4.55816 15.9059V15.9441L4.55431 15.9861V16.0244V16.0319V16.0702V16.1122L4.55816 16.1504L4.56179 16.1886L4.56573 16.2268L4.56954 16.2611L4.57732 16.2994L4.58122 16.3338L4.58896 16.372L4.60061 16.4064L4.60835 16.4446L4.61977 16.4789L4.62752 16.5133L4.64305 16.5477L4.65469 16.5783L4.67 16.6126L4.68549 16.647L4.70102 16.6814L4.71629 16.7158L4.73568 16.7463L4.75506 16.7807L4.77427 16.8113L4.79361 16.8419L4.81667 16.8724L4.83605 16.903L4.85933 16.9298L4.88239 16.9603L4.90567 16.987L4.93258 17.0138L4.95975 17.0405L4.98666 17.0634L5.01383 17.0902L5.04074 17.1131L5.06787 17.136L5.09872 17.159L5.12953 17.1818L5.16055 17.2048L5.19135 17.2238L5.22237 17.243L5.25707 17.2621L5.28783 17.281L5.32279 17.3L5.35745 17.3153L5.39215 17.3306L5.42706 17.3459L5.46556 17.3612L5.50027 17.3726L5.53496 17.3879L5.56988 17.3994L5.60843 17.407L5.64313 17.4185L5.6819 17.4261L5.71655 17.4338L5.75514 17.4414L5.79369 17.4491L5.8325 17.4529L5.87105 17.4567L5.9096 17.4605L5.95204 17.4644L5.99059 17.4681H6.0294H6.07181H6.11429H6.15673L6.19913 17.4644L6.23794 17.4605L6.28039 17.4567L6.31894 17.4529L6.36138 17.4491L6.39998 17.4452L6.43874 17.4376L6.47729 17.4299L6.51199 17.4223L6.55079 17.4147L6.58545 17.4032L6.624 17.3918L6.65869 17.3803L6.69357 17.3688L6.72831 17.3573L6.76297 17.342L6.80178 17.3268L6.83643 17.3115L6.87498 17.2962L6.90968 17.2771L6.94455 17.2621L6.97925 17.243L7.01396 17.2238L7.04887 17.2048L7.07967 17.1857L7.1107 17.1665L7.1415 17.1437L7.1723 17.1245L7.20332 17.1017L7.23028 17.0825ZM6.01933 8.34234H7.69298V7.06733H6.01933V4.46438H7.75957V3.18937H4.59811V12.3913H7.78605V11.1162H6.01933V8.34234ZM18.0071 10.6956V8.61856H19.4019V10.7612C19.4019 11.905 18.8308 12.4702 17.6751 12.4702H16.971C15.8155 12.4702 15.2442 11.905 15.2442 10.7612V4.81942C15.2442 3.67566 15.8155 3.11046 16.971 3.11046H17.6619C18.8174 3.11046 19.3752 3.66262 19.3752 4.80617V6.68617H17.9806V4.88505C17.9806 4.51697 17.8078 4.34619 17.4492 4.34619H17.2101C16.8383 4.34619 16.6655 4.51697 16.6655 4.88505V10.6956C16.6655 11.0637 16.8383 11.2345 17.2101 11.2345H17.4759C17.8344 11.2345 18.0071 11.0637 18.0071 10.6956ZM13.0716 12.3913H14.4931V3.18934H13.0716V12.3913ZM10.478 7.81674C10.8367 7.81674 11.0092 7.64574 11.0092 7.27763V4.96393C11.0092 4.59589 10.8367 4.42507 10.478 4.42507H9.89348V7.81674H10.478ZM8.47215 3.18934H10.7037C11.8594 3.18934 12.4304 3.75454 12.4304 4.89831V7.3435C12.4304 8.48709 11.8594 9.05222 10.7037 9.05222H9.89348V12.3913H8.47215V3.18934Z" fill="white"/>
<path fill-rule="evenodd" clip-rule="evenodd" d="M7.95312 20.7119H16.0894L11.9365 22.0608L7.95312 20.7119Z" fill="white"/>
<path fill-rule="evenodd" clip-rule="evenodd" d="M3.40705 0H20.5929C21.9859 0 22.5 0.506308 22.5 1.87885V18.4408C22.5 18.5961 22.4935 18.7404 22.4797 18.8741C22.4771 18.899 22.4746 18.9238 22.4721 18.9485V18.9488C22.445 19.2224 22.4184 19.4915 22.159 19.7945C22.1315 19.8269 21.8426 20.0386 21.8426 20.0386C21.8146 20.0521 21.7881 20.065 21.7626 20.0774C21.6467 20.1341 21.5495 20.1814 21.4059 20.2383L12.9433 23.7302C12.504 23.9286 12.3203 24.0059 12.0012 23.9996V23.9997H12H11.9987V23.9996C11.6796 24.0059 11.4959 23.9286 11.0566 23.7302L2.59405 20.2383C2.45026 20.1813 2.35303 20.1339 2.23693 20.0773C2.21154 20.0648 2.18525 20.052 2.15737 20.0386C2.15737 20.0386 1.86853 19.8269 1.84089 19.7945C1.58156 19.4915 1.55492 19.2224 1.52786 18.9488C1.5254 18.9239 1.52294 18.899 1.5203 18.8741C1.50636 18.7404 1.5 18.5961 1.5 18.4408V1.87885C1.5 0.506308 2.01408 0 3.40705 0ZM19.438 16.6891L19.4418 16.6508L19.4457 16.6088V16.5668V16.5591V16.5171L19.4418 16.4751L19.438 16.4369L19.4302 16.3987L19.4225 16.3605L19.4147 16.3261L19.4032 16.2917L19.3916 16.2574L19.3762 16.2268L19.3568 16.1924L19.3375 16.1618L19.3143 16.1275L19.2912 16.0969L19.2641 16.0702L19.2372 16.0396L19.2062 16.0129L19.1753 15.9861L19.1445 15.967L19.1135 15.9441L19.0827 15.925L19.048 15.9059L19.0131 15.8868L18.9746 15.8677L18.936 15.8525L18.8974 15.8333L18.8548 15.8183L18.8201 15.8068L18.7854 15.7953L18.7466 15.7839L18.712 15.7724L18.6734 15.761L18.6348 15.7495L18.596 15.7418L18.5536 15.7304L18.515 15.719L18.4726 15.7113L18.4301 15.6998L18.3878 15.6884L18.345 15.677L18.3064 15.6692L18.2718 15.6578L18.2369 15.6502L18.2061 15.6387L18.1753 15.6311L18.1289 15.6158L18.0863 15.6005L18.0477 15.5852L18.017 15.5661L17.982 15.5471L17.9551 15.5203L17.9395 15.4973L17.9204 15.4553L17.9165 15.4057V15.398L17.9204 15.3599L17.9356 15.3254L17.959 15.2911L17.9936 15.2605L18.0208 15.2453L18.0516 15.23L18.0863 15.2223L18.1251 15.2147L18.1675 15.207H18.2138H18.2524L18.2871 15.2108L18.3259 15.2147L18.3644 15.2185L18.403 15.2261L18.4415 15.2338L18.4804 15.2414L18.5189 15.2528L18.5575 15.2644L18.5999 15.2758L18.631 15.2911L18.6656 15.3026L18.6964 15.3178L18.7313 15.3331L18.7621 15.3484L18.7968 15.3637L18.8279 15.3828L18.8625 15.398L18.8936 15.421L18.9244 15.44L18.959 15.4592L18.9901 15.482L19.0131 15.4515L19.0325 15.421L19.0555 15.3904L19.0788 15.3599L19.1018 15.3254L19.1213 15.2949L19.1445 15.2644L19.1676 15.2338L19.187 15.2032L19.21 15.1727L19.2333 15.1421L19.2527 15.1115L19.2757 15.0772L19.299 15.0466L19.3221 15.0161L19.3414 14.9855L19.3645 14.9549L19.3337 14.932L19.3029 14.9091L19.2719 14.8861L19.241 14.867L19.2062 14.8442L19.1753 14.825L19.1407 14.8059L19.1057 14.7868L19.075 14.7716L19.0402 14.7524L19.0015 14.7371L18.9667 14.7218L18.9321 14.7066L18.8974 14.6951L18.8587 14.6798L18.8239 14.6722L18.7892 14.6607L18.7505 14.6493L18.7158 14.6417L18.6772 14.634L18.6387 14.6264L18.6038 14.6187L18.5652 14.6111L18.5228 14.6072L18.4842 14.5997L18.4415 14.5958H18.403L18.3605 14.5919L18.3181 14.5882H18.2757H18.2332H18.1906H18.152L18.1135 14.5919L18.0749 14.5958L18.0361 14.5997L17.9975 14.6034L17.9629 14.6111L17.9243 14.6187L17.8895 14.6264L17.8547 14.634L17.8239 14.6417L17.7889 14.6531L17.7504 14.6684L17.7119 14.6798L17.677 14.6951L17.6423 14.7142L17.6076 14.7295L17.5727 14.7486L17.5419 14.7677L17.5111 14.7906L17.48 14.8136L17.4531 14.8326L17.4221 14.8594L17.3951 14.89L17.368 14.9167L17.3411 14.9473L17.3178 14.9778L17.2948 15.0084L17.2754 15.0428L17.2562 15.0772L17.2407 15.1115L17.2252 15.1459L17.2099 15.1803L17.2021 15.2147L17.1905 15.2491L17.1827 15.2834L17.175 15.3178L17.1711 15.356L17.1672 15.3904L17.1634 15.4286V15.4668V15.4745V15.5165L17.1672 15.5585L17.1711 15.5967L17.175 15.6349L17.1827 15.6692L17.1905 15.7075L17.2021 15.738L17.2136 15.7724L17.2252 15.803L17.2407 15.8295L17.26 15.8639L17.2792 15.8945L17.2987 15.9212L17.3217 15.9479L17.3449 15.9746L17.372 16.0014L17.399 16.0281L17.426 16.0511L17.457 16.0702L17.4878 16.0931L17.5225 16.1122L17.5535 16.1313L17.5921 16.1504L17.6267 16.1695L17.6655 16.1848L17.7041 16.2L17.7427 16.2153L17.7851 16.2306L17.82 16.2421L17.8547 16.2536L17.8895 16.265L17.9279 16.2727L17.9629 16.2841L18.0014 16.2956L18.04 16.3032L18.0788 16.3147L18.1173 16.3223L18.1597 16.3338L18.1984 16.3414L18.2407 16.3529L18.2795 16.3605L18.3181 16.372L18.3528 16.3796L18.3878 16.3911L18.4185 16.3987L18.4454 16.4064L18.4917 16.4255L18.5306 16.4408L18.5652 16.4561L18.596 16.4713L18.6271 16.4942L18.654 16.5171L18.6734 16.5439L18.6889 16.5821L18.6927 16.6279V16.6355L18.6889 16.6738L18.6772 16.7081L18.6617 16.7387L18.6387 16.7654L18.6077 16.7884L18.5807 16.8036L18.5497 16.8151L18.515 16.8227L18.4804 16.8304L18.4415 16.838L18.3991 16.8419H18.3528H18.3142L18.2718 16.838H18.2332L18.1945 16.8304L18.152 16.8266L18.1135 16.8189L18.0749 16.8113L18.0361 16.8036L18.0014 16.7922L17.9629 16.7807L17.9243 16.7693L17.8895 16.754L17.8547 16.7426L17.82 16.7273L17.7851 16.712L17.7504 16.6967L17.7197 16.6775L17.6847 16.6623L17.6539 16.6432L17.6192 16.6203L17.5882 16.6012L17.5535 16.5783L17.5225 16.5554L17.4878 16.5324L17.457 16.5095L17.4337 16.5401L17.4068 16.5668L17.3835 16.5974L17.3566 16.6279L17.3333 16.6547L17.3103 16.6853L17.2832 16.7158L17.26 16.7426L17.2329 16.7731L17.2099 16.7998L17.1827 16.8304L17.1597 16.861L17.1364 16.8877L17.1094 16.9182L17.0862 16.9488L17.0593 16.9756L17.036 17.0061L17.0669 17.0329L17.0939 17.0558L17.1248 17.0787L17.1558 17.1017L17.1866 17.1245L17.2175 17.1475L17.2484 17.1665L17.2792 17.1857L17.3142 17.2048L17.3449 17.2238L17.3797 17.243L17.4146 17.2583L17.4493 17.2771L17.4839 17.2924L17.5188 17.3077L17.5574 17.323L17.5921 17.3344L17.6306 17.3459L17.6655 17.3612L17.7041 17.3726L17.7427 17.3841L17.7774 17.3918L17.8161 17.4032L17.8547 17.4108L17.8932 17.4185L17.9318 17.4261L17.9706 17.4338L18.0091 17.4376L18.0477 17.4452L18.0901 17.4491L18.1289 17.4529L18.1675 17.4567H18.2099L18.2486 17.4605H18.2871H18.3297H18.3722H18.4107L18.4493 17.4567L18.4917 17.4529L18.5306 17.4491L18.5652 17.4452L18.6038 17.4414L18.6426 17.4338L18.6772 17.4261L18.712 17.4185L18.7505 17.4108L18.7854 17.3994L18.8239 17.3879L18.8625 17.3765L18.9011 17.3612L18.9399 17.3459L18.9746 17.3268L19.0092 17.3115L19.0442 17.2924L19.075 17.2694L19.1057 17.2506L19.1368 17.2277L19.1637 17.2048L19.1947 17.178L19.2178 17.1551L19.2449 17.1284L19.268 17.1017L19.2874 17.0711L19.3104 17.0405L19.3298 17.0099L19.3492 16.9794L19.3645 16.9451L19.38 16.9145L19.3955 16.88L19.4072 16.8419L19.4147 16.8074L19.4263 16.7693L19.4341 16.731L19.438 16.6891ZM16.6949 17.4147H16.7337H16.7723V17.3765V17.342V17.3039V17.2657V17.2277V17.1933V17.1551V17.117V17.0825V17.0443V17.0061V16.9718V16.9335V16.8953V16.8572V16.8227V16.7845H16.7337H16.6949H16.6564H16.6178H16.5793H16.5404H16.5019H16.4633H16.4248H16.3821H16.3436H16.305H16.2665H16.2276H16.1891H16.1505H16.1119H16.0732H16.0346H15.9961H15.9575H15.9189H15.8801H15.8416H15.803H15.7645H15.7256H15.6871H15.6485H15.6061H15.5673H15.5287H15.4902H15.4516H15.4129H15.3743H15.3357H15.2971H15.2584V16.7463V16.7043V16.6661V16.6279V16.5859V16.5477V16.5095V16.4675V16.4293V16.3911V16.349V16.3109H15.2971H15.3357H15.3743H15.4129H15.4516H15.4902H15.5287H15.5673H15.6022H15.6408H15.6793H15.7179H15.7567H15.7952H15.8338H15.8723H15.9112H15.9497H15.9883H16.0268H16.0656H16.1042H16.1428H16.1813H16.2201H16.2586H16.2934H16.3319H16.3707H16.4093H16.4478H16.4864H16.5251H16.5637H16.6023V16.2727V16.2383V16.2V16.1618V16.1275V16.0892V16.0511V16.0129V15.9785V15.9403V15.9021V15.8677V15.8295V15.7915V15.7571V15.719H16.5637H16.5251H16.4864H16.4478H16.4093H16.3707H16.3319H16.2934H16.2586H16.2201H16.1813H16.1428H16.1042H16.0656H16.0268H15.9883H15.9497H15.9112H15.8723H15.8338H15.7952H15.7567H15.7179H15.6793H15.6408H15.6022H15.5673H15.5287H15.4902H15.4516H15.4129H15.3743H15.3357H15.2971H15.2584V15.6807V15.6425V15.6043V15.5661V15.5279V15.4898V15.4553V15.4172V15.3789V15.3407V15.3026V15.2644H15.2971H15.3357H15.3743H15.4129H15.4516H15.4902H15.5249H15.5634H15.6022H15.6408H15.6793H15.7179H15.7567H15.7952H15.8338H15.8723H15.9112H15.9497H15.9883H16.0229H16.0618H16.1003H16.1389H16.1774H16.2162H16.2548H16.2934H16.3319H16.3707H16.4093H16.4478H16.4864H16.5213H16.5598H16.5984H16.6369H16.6757H16.7144H16.7529V15.2261V15.1918V15.1535V15.1154V15.0772V15.0428V15.0046V14.9663V14.932V14.8938V14.8556V14.8211V14.783V14.7448V14.7066V14.6722V14.634H16.7144H16.6757H16.6369H16.5984H16.5598H16.5213H16.4825H16.4439H16.4053H16.3668H16.328H16.2895H16.2509H16.2124H16.1774H16.1389H16.1003H16.0618H16.0229H15.9844H15.9458H15.9073H15.8685H15.8299H15.7913H15.7528H15.7142H15.6755H15.6369H15.5984H15.5598H15.5209H15.4824H15.4439H15.4053H15.3665H15.3279H15.2893H15.2508H15.2121H15.1735H15.1349H15.0963H15.0614H15.0229H14.9844H14.9458H14.907H14.8684H14.8298H14.7913H14.7525H14.714H14.6753H14.6369H14.5981H14.5595H14.521V14.6722V14.7104V14.7486V14.7868V14.825V14.8632V14.9014V14.9396V14.9778V15.0161V15.0542V15.0924V15.1306V15.1688V15.207V15.2453V15.2834V15.3216V15.356V15.3942V15.4324V15.4706V15.5088V15.5471V15.5852V15.6235V15.6617V15.6998V15.738V15.7763V15.8144V15.8525V15.8906V15.9288V15.967V16.0052V16.0434V16.0816V16.1198V16.158V16.1963V16.2344V16.2727V16.3109V16.349V16.3872V16.4255V16.4636V16.5018V16.5401V16.5783V16.6165V16.6547V16.6928V16.7273V16.7654V16.8036V16.8419V16.88V16.9182V16.9565V16.9947V17.0329V17.0711V17.1093V17.1475V17.1857V17.2238V17.2621V17.3V17.3382V17.3765V17.4147H14.5595H14.5981H14.6369H14.6753H14.714H14.7525H14.7913H14.8298H14.8684H14.9108H14.9494H14.9882H15.0268H15.0653H15.1039H15.1427H15.1813H15.2198H15.2584H15.2971H15.3357H15.3743H15.4129H15.4516H15.4902H15.5287H15.5673H15.6061H15.6485H15.6871H15.7256H15.7645H15.803H15.8416H15.8801H15.9189H15.9575H15.9961H16.0346H16.0732H16.1119H16.1505H16.1891H16.2276H16.2665H16.305H16.3436H16.3821H16.4248H16.4633H16.5019H16.5404H16.5793H16.6178H16.6564H16.6949ZM13.8736 17.4147H13.9121H13.9507V17.3765V17.3382V17.3V17.2621V17.2238V17.1857V17.1475V17.1093V17.0711V17.0329V16.9947V16.9565V16.9182V16.88V16.8419V16.8036V16.7654V16.7273V16.6928V16.6547V16.6165V16.5783V16.5401V16.5018V16.4636V16.4255V16.3872V16.349V16.3109V16.2727V16.2344V16.1963V16.158V16.1198V16.0816V16.0434V16.0052V15.967V15.9288V15.8906V15.8525V15.8144V15.7763V15.738V15.6998V15.6617V15.6235V15.5852V15.5471V15.5088V15.4706V15.4324V15.3942V15.356V15.3216V15.2834V15.2453V15.207V15.1688V15.1306V15.0924V15.0542V15.0161V14.9778V14.9396V14.9014V14.8632V14.825V14.7868V14.7486V14.7104V14.6722V14.634H13.9121H13.8736H13.8387H13.8001H13.7616H13.723H13.6881H13.6495H13.611H13.5724H13.5375H13.499H13.4604H13.4219H13.3869H13.3484H13.3098H13.2712H13.2364H13.1978H13.1592L13.1399 14.6645L13.1206 14.6989L13.0974 14.7293L13.078 14.7636L13.0589 14.7942L13.0394 14.8286L13.0164 14.8589L12.997 14.8934L12.9776 14.9239L12.9584 14.9545L12.9352 14.9886L12.916 15.0192L12.8966 15.0536L12.8772 15.0841L12.8542 15.1183L12.8348 15.1488L12.8156 15.1793L12.7962 15.2135L12.7768 15.2441L12.7537 15.2785L12.7344 15.3091L12.715 15.3432L12.6958 15.3738L12.6725 15.4082L12.6534 15.4385L12.634 15.4691L12.6146 15.5034L12.5915 15.534L12.5722 15.5684L12.5529 15.5987L12.5336 15.6331L12.5105 15.6637L12.4912 15.6978L12.4718 15.7284L12.4526 15.6978L12.4332 15.6637L12.4099 15.6331L12.3907 15.5987L12.3713 15.5684L12.3522 15.534L12.3328 15.5034L12.3095 15.4691L12.2903 15.4385L12.2709 15.4082L12.2518 15.3738L12.2324 15.3432L12.2092 15.3091L12.1899 15.2785L12.1705 15.2441L12.1514 15.2135L12.132 15.1793L12.1088 15.1488L12.0896 15.1183L12.0702 15.0841L12.0508 15.0536L12.0278 15.0192L12.0083 14.9886L11.9892 14.9545L11.9698 14.9239L11.9504 14.8934L11.9273 14.8589L11.9079 14.8286L11.8888 14.7942L11.8694 14.7636L11.8499 14.7293L11.8269 14.6989L11.8075 14.6645L11.7884 14.634H11.7496H11.711H11.6764H11.6378H11.599H11.5604H11.5258H11.4872H11.4484H11.4098H11.3752H11.3366H11.2978H11.2592H11.2246H11.1858H11.1472H11.1087H11.074H11.0352H10.9966V14.6722V14.7104V14.7486V14.7868V14.825V14.8632V14.9014V14.9396V14.9778V15.0161V15.0542V15.0924V15.1306V15.1688V15.207V15.2453V15.2834V15.3216V15.356V15.3942V15.4324V15.4706V15.5088V15.5471V15.5852V15.6235V15.6617V15.6998V15.738V15.7763V15.8144V15.8525V15.8906V15.9288V15.967V16.0052V16.0434V16.0816V16.1198V16.158V16.1963V16.2344V16.2727V16.3109V16.349V16.3872V16.4255V16.4636V16.5018V16.5401V16.5783V16.6165V16.6547V16.6928V16.7273V16.7654V16.8036V16.8419V16.88V16.9182V16.9565V16.9947V17.0329V17.0711V17.1093V17.1475V17.1857V17.2238V17.2621V17.3V17.3382V17.3765V17.4147H11.0352H11.074H11.1125H11.1511H11.1897H11.2285H11.267H11.3056H11.3441H11.3829H11.4215H11.4601H11.4986H11.5374H11.5759H11.6145H11.6531H11.6918H11.7304V17.3765V17.3382V17.3V17.2619V17.2234V17.1852V17.147V17.1088V17.0706V17.0324V16.998V16.9596V16.9214V16.8832V16.845V16.8068V16.7684V16.7302V16.6919V16.6538V16.6156V16.5773V16.5389V16.5008V16.4625V16.4243V16.3862V16.3479V16.3095V16.2713V16.2331V16.1949V16.1605V16.1223V16.0839V16.0457V16.0075V15.9693V15.9311V15.8927V15.8544V15.8162V15.7781L11.7534 15.8086L11.7729 15.8432L11.7959 15.8738L11.8153 15.9081L11.8386 15.9387L11.8577 15.9731L11.8811 16.0039L11.9002 16.0382L11.9234 16.0688L11.9429 16.1032L11.9659 16.1338L11.9853 16.1684L12.0083 16.199L12.0278 16.2333L12.0508 16.2639L12.0702 16.2985L12.0934 16.329L12.1165 16.3634L12.1359 16.394L12.1589 16.4286L12.1784 16.4591L12.2016 16.4936L12.2207 16.5241L12.244 16.5587L12.2632 16.5893L12.2864 16.6236L12.3059 16.6542L12.3289 16.6886L12.3483 16.7194L12.3713 16.7537L12.3907 16.7843L12.4138 16.8187L12.4332 16.8495L12.4565 16.8839H12.4718L12.4912 16.8533L12.5142 16.8187L12.5336 16.7882L12.5569 16.7576L12.576 16.7232L12.5992 16.6926L12.6185 16.6619L12.6379 16.6275L12.6611 16.5969L12.6803 16.5663L12.7036 16.5356L12.7228 16.5012L12.746 16.4706L12.7654 16.44L12.7846 16.4054L12.8078 16.3749L12.827 16.3443L12.8503 16.31L12.8694 16.2794L12.8927 16.2486L12.9121 16.2142L12.9313 16.1837L12.9546 16.1531L12.9737 16.1185L12.997 16.0879L13.0164 16.0574L13.0394 16.0268L13.0589 15.9922L13.078 15.9617L13.1013 15.9311L13.1206 15.8967L13.1437 15.8661L13.1631 15.8356L13.1862 15.8009L13.2055 15.7703V15.8086V15.8468V15.885V15.9234V15.9617V15.9998V16.0381V16.0763V16.1147V16.1529V16.1911V16.2293V16.2674V16.3057V16.3441V16.3823V16.4205V16.4587V16.4969V16.5351V16.5735V16.6118V16.6499V16.6881V16.7263V16.7645V16.8029V16.8412V16.8794V16.9176V16.9558V16.9942V17.0324V17.0706V17.1088V17.147V17.1852V17.2234V17.2619V17.3V17.3382V17.3765V17.4147H13.2441H13.2826H13.3214H13.3639H13.4024H13.441H13.4797H13.5184H13.5569H13.5994H13.6379H13.6767H13.7153H13.7539H13.7924H13.835H13.8736ZM9.42 16.2342L9.43162 16.2689L9.44715 16.3032H9.4086H9.36983H9.33127H9.29265H9.2541H9.21555H9.17677H9.13823H9.10357H9.06472H9.02617H8.98762H8.94908H8.9103H8.87168H8.83313H8.79457L8.80988 16.2689L8.8215 16.2342L8.83702 16.196L8.85255 16.1616L8.86395 16.127L8.8794 16.0926L8.895 16.0544L8.9103 16.0198L8.92185 15.9854L8.93738 15.9511L8.9529 15.9165L8.9643 15.8783L8.97983 15.8439L8.99535 15.8093L9.00705 15.7749L9.02227 15.7405L9.0378 15.7021L9.05333 15.6677L9.06472 15.6333L9.08025 15.5987L9.09577 15.5605L9.1074 15.5259L9.1227 15.4916L9.13823 15.5259L9.14985 15.5605L9.16508 15.5987L9.18068 15.6333L9.1923 15.6677L9.20775 15.7021L9.22312 15.7405L9.23467 15.7749L9.2502 15.8093L9.26572 15.8439L9.27713 15.8783L9.29265 15.9165L9.30435 15.9511L9.31957 15.9854L9.3351 16.0198L9.3468 16.0544L9.36225 16.0926L9.37755 16.127L9.38917 16.1616L9.4047 16.196L9.42 16.2342ZM10.6056 17.4147H10.6444H10.6828L10.6674 17.3803L10.6519 17.3459L10.6367 17.3115L10.625 17.2733L10.6094 17.2391L10.5939 17.2048L10.5786 17.1704L10.5631 17.136L10.5476 17.1017L10.5323 17.0634L10.5168 17.029L10.5051 16.9947L10.4899 16.9603L10.4743 16.9259L10.4588 16.8915L10.4434 16.8533L10.4281 16.8189L10.4125 16.7845L10.397 16.7501L10.3856 16.7158L10.3701 16.6814L10.3546 16.6432L10.3391 16.6088L10.3238 16.5744L10.3082 16.5401L10.2928 16.5056L10.2774 16.4713L10.2659 16.433L10.2503 16.3987L10.235 16.3643L10.2195 16.3299L10.204 16.2956L10.1884 16.2611L10.1732 16.223L10.1577 16.1886L10.146 16.1542L10.1308 16.1198L10.1153 16.0855L10.0997 16.0511L10.0842 16.0129L10.0689 15.9785L10.0534 15.9441L10.0378 15.9097L10.0265 15.8753L10.0109 15.8409L9.9954 15.8068L9.98018 15.7686L9.96465 15.7343L9.94905 15.6998L9.9336 15.6654L9.9183 15.6311L9.90668 15.5967L9.89115 15.5585L9.87585 15.5241L9.86032 15.4898L9.84488 15.4553L9.82935 15.421L9.81398 15.3866L9.79852 15.3484L9.7869 15.314L9.7716 15.2796L9.75607 15.2453L9.74055 15.2108L9.72532 15.1765L9.7098 15.1383L9.69427 15.1039L9.67875 15.0695L9.66735 15.0351L9.65182 15.0008L9.6363 14.9663L9.621 14.9282L9.60547 14.8938L9.58995 14.8594L9.57442 14.825L9.5592 14.7906L9.5475 14.7563L9.53205 14.718L9.51675 14.6837L9.50122 14.6493L9.4857 14.6149H9.44715H9.41243H9.37365H9.3351H9.29655H9.26183H9.22312H9.1845H9.14603H9.1113H9.07245H9.0339H8.99535H8.9607H8.92185H8.8833H8.84475H8.80988H8.77133L8.75602 14.6493L8.7405 14.6837L8.72505 14.718L8.71335 14.7563L8.69805 14.7906L8.6826 14.825L8.66708 14.8594L8.65177 14.8938L8.63625 14.9282L8.62072 14.9663L8.6052 15.0008L8.5938 15.0351L8.57828 15.0695L8.56275 15.1039L8.54745 15.1383L8.53193 15.1765L8.5164 15.2108L8.5011 15.2453L8.48565 15.2796L8.47403 15.314L8.4585 15.3484L8.4432 15.3866L8.42768 15.421L8.41215 15.4553L8.39685 15.4898L8.38133 15.5241L8.3658 15.5585L8.35417 15.5967L8.33895 15.6311L8.32335 15.6654L8.3079 15.6998L8.2926 15.7343L8.27708 15.7686L8.26163 15.8068L8.24625 15.8409L8.23462 15.8753L8.2191 15.9097L8.20365 15.9441L8.18835 15.9785L8.17283 16.0129L8.1573 16.0511L8.142 16.0855L8.12648 16.1198L8.11485 16.1542L8.09933 16.1886L8.08402 16.223L8.06857 16.2611L8.05305 16.2956L8.03775 16.3299L8.02222 16.3643L8.0067 16.3987L7.99508 16.433L7.97977 16.4713L7.96425 16.5056L7.94872 16.5401L7.9335 16.5744L7.91797 16.6088L7.90238 16.6432L7.88715 16.6814L7.87552 16.7158L7.86 16.7501L7.84447 16.7845L7.82917 16.8189L7.81365 16.8533L7.79813 16.8915L7.7829 16.9259L7.7673 16.9603L7.75575 16.9947L7.74022 17.029L7.72493 17.0634L7.7094 17.1017L7.69388 17.136L7.67858 17.1704L7.66313 17.2048L7.6476 17.2391L7.6359 17.2733L7.6206 17.3115L7.60515 17.3459L7.58963 17.3803L7.57433 17.4147H7.61287H7.6515H7.69005H7.72883H7.77128H7.80982H7.8483H7.88715H7.9257H7.96425H8.0028H8.04158H8.0802H8.11875H8.1612H8.19975H8.23853H8.27708H8.31562H8.35417L8.3697 17.3803L8.38133 17.3459L8.39685 17.3115L8.41215 17.2733L8.42377 17.2391L8.4393 17.2048L8.4546 17.1704L8.46622 17.136L8.48175 17.1017L8.49728 17.0672L8.50868 17.0329L8.5242 16.9947L8.53973 16.9603L8.55135 16.9259L8.56665 16.8915H8.6052H8.64398H8.6826H8.72108H8.75602H8.79457H8.83313H8.87168H8.9103H8.94908H8.98762H9.02617H9.06472H9.10357H9.13823H9.17677H9.21555H9.2541H9.29265H9.33127H9.36983H9.4086H9.44715H9.4857H9.52065H9.5592H9.59775H9.6363H9.67485L9.69037 16.9259L9.702 16.9603L9.71753 16.9947L9.73283 17.0329L9.74445 17.0672L9.75998 17.1017L9.77542 17.136L9.7869 17.1704L9.80242 17.2048L9.81787 17.2391L9.82935 17.2733L9.84488 17.3115L9.86032 17.3459L9.87195 17.3803L9.88733 17.4147H9.9261H9.96465H9.9993H10.0378H10.0766H10.1153H10.1538H10.1884H10.2272H10.2659H10.3044H10.3429H10.3817H10.4164H10.455H10.4935H10.5323H10.5709H10.6056ZM7.23028 17.0825L7.2613 17.0596L7.28821 17.0367V16.9985V16.9603V16.9221V16.8877V16.8495V16.8113V16.7731V16.7349V16.6967V16.6623V16.6241V16.5859V16.5477V16.5095V16.4713V16.433V16.3987V16.3605V16.3223V16.2841V16.2459V16.2077V16.1695V16.1351V16.0969V16.0587V16.0205V15.9823V15.9441V15.9097V15.8715V15.8333V15.7953H7.24962H7.21107H7.1723H7.13375H7.09517H7.05661H7.0178H6.97925H6.9407H6.90211H6.86335H6.8248H6.78625H6.74765H6.70889H6.67033H6.63178H6.5932H6.55438H6.51584H6.47729H6.43874H6.39998H6.36138H6.32283H6.28428H6.24547H6.20692H6.16833H6.12983H6.09123H6.05246H6.01387V15.8333V15.8677V15.9059V15.9441V15.9823V16.0167V16.0549V16.0931V16.1313V16.1657V16.2039V16.2421V16.2803V16.3147V16.3529H6.05246H6.08734H6.12593H6.16448H6.20307H6.23794H6.27649H6.31504H6.35363H6.38855H6.4271H6.46564H6.50424H6.53911H6.57771V16.3911V16.4293V16.4675V16.5056V16.5477V16.5859V16.6241V16.6623V16.7005L6.54685 16.7196L6.51973 16.7349L6.48508 16.7501L6.45406 16.7654L6.41931 16.7807L6.38465 16.7884L6.3461 16.7998L6.3073 16.8074L6.26875 16.8151L6.2302 16.8189L6.18776 16.8227L6.14505 16.8266H6.09876H6.05631L6.01387 16.8227L5.97532 16.8189L5.93677 16.8113L5.89796 16.8036L5.85941 16.7922L5.82082 16.7807L5.78595 16.7654L5.75129 16.7501L5.71655 16.7349L5.68553 16.7158L5.65477 16.6967L5.62397 16.6738L5.5929 16.6508L5.56603 16.6279L5.54271 16.6012L5.5158 16.5744L5.49252 16.5477L5.46946 16.5171L5.45008 16.4866L5.4307 16.4561L5.41153 16.4216L5.39604 16.3872L5.38051 16.349L5.36909 16.3185L5.35745 16.2841L5.3497 16.2497L5.34191 16.2153L5.33417 16.181L5.33027 16.1428L5.32643 16.1084L5.32279 16.0702V16.0319V16.0244V15.9823L5.32643 15.9441L5.33027 15.9059L5.33807 15.8639L5.3458 15.8295L5.35355 15.7915L5.36519 15.7533L5.38051 15.719L5.39215 15.6845L5.40763 15.6502L5.42706 15.6196L5.44619 15.5852L5.46556 15.5547L5.48478 15.5279L5.50805 15.4973L5.53496 15.4706L5.55824 15.4439L5.58515 15.421L5.61232 15.398L5.63924 15.3752L5.6703 15.356L5.70106 15.3369L5.73208 15.3178L5.76678 15.3026L5.80148 15.2873L5.83613 15.2758L5.87105 15.2644L5.90575 15.2567L5.9443 15.2491L5.97922 15.2453L6.01777 15.2414H6.05631H6.09876L6.14142 15.2453L6.18386 15.2491L6.22246 15.2528L6.261 15.2605L6.29955 15.2681L6.33447 15.2758L6.36912 15.2873L6.40382 15.2987L6.43484 15.3101L6.46564 15.3254L6.49667 15.3407L6.53132 15.3599L6.56218 15.3789L6.5932 15.398L6.624 15.4172L6.6548 15.44L6.68583 15.4592L6.71663 15.4859L6.74765 15.5088L6.77072 15.4783L6.79784 15.4515L6.82094 15.421L6.84807 15.3904L6.87109 15.3599L6.89437 15.3331L6.92132 15.3026L6.94455 15.272L6.9715 15.2414L6.99478 15.2147L7.0178 15.1841L7.04498 15.1535L7.06803 15.1268L7.09131 15.0962L7.11822 15.0656L7.1415 15.0351L7.16841 15.0084L7.19168 14.9778L7.16088 14.9549L7.12986 14.9282L7.09906 14.9052L7.06803 14.8823L7.03723 14.8632L7.00642 14.8403L6.9715 14.8211L6.9407 14.8021L6.90604 14.783L6.87498 14.7639L6.84033 14.7486L6.80563 14.7295L6.77072 14.7142L6.73606 14.6989L6.70136 14.6837L6.66644 14.6722L6.63564 14.6607L6.60098 14.6531L6.56607 14.6417L6.53132 14.634L6.49667 14.6264L6.4618 14.6187L6.4232 14.6111L6.38465 14.6034L6.34974 14.5997L6.3073 14.5919L6.26875 14.5882H6.2302L6.18776 14.5844L6.14505 14.5805H6.10261H6.06021H6.02166H5.97922L5.9404 14.5844L5.90181 14.5882L5.86331 14.5919L5.82471 14.5958L5.78595 14.6034L5.74735 14.6072L5.70881 14.6149L5.67411 14.6264L5.63534 14.634L5.60069 14.6454L5.56603 14.6531L5.53107 14.6684L5.49252 14.6798L5.46172 14.6913L5.42312 14.7104L5.38826 14.7257L5.35355 14.741L5.31889 14.7601L5.28398 14.7791L5.24928 14.7983L5.21852 14.8174L5.18746 14.8364L5.15665 14.8594L5.12563 14.8785L5.09482 14.9014L5.06787 14.9243L5.03685 14.9511L5.00994 14.974L4.98281 15.0008L4.95586 15.0275L4.93258 15.0542L4.90567 15.0809L4.88239 15.1077L4.85933 15.1383L4.83605 15.1688L4.81304 15.1994L4.79361 15.23L4.77427 15.2605L4.75506 15.2911L4.73568 15.3216L4.71629 15.356L4.70102 15.3904L4.68549 15.4248L4.67 15.4592L4.65469 15.4935L4.63916 15.5318L4.62752 15.5661L4.61588 15.6043L4.6045 15.6387L4.59671 15.677L4.58507 15.7151L4.57732 15.7495L4.57348 15.7877L4.56573 15.8257L4.56179 15.8677L4.55816 15.9059V15.9441L4.55431 15.9861V16.0244V16.0319V16.0702V16.1122L4.55816 16.1504L4.56179 16.1886L4.56573 16.2268L4.56954 16.2611L4.57732 16.2994L4.58122 16.3338L4.58896 16.372L4.60061 16.4064L4.60835 16.4446L4.61977 16.4789L4.62752 16.5133L4.64305 16.5477L4.65469 16.5783L4.67 16.6126L4.68549 16.647L4.70102 16.6814L4.71629 16.7158L4.73568 16.7463L4.75506 16.7807L4.77427 16.8113L4.79361 16.8419L4.81667 16.8724L4.83605 16.903L4.85933 16.9298L4.88239 16.9603L4.90567 16.987L4.93258 17.0138L4.95975 17.0405L4.98666 17.0634L5.01383 17.0902L5.04074 17.1131L5.06787 17.136L5.09872 17.159L5.12953 17.1818L5.16055 17.2048L5.19135 17.2238L5.22237 17.243L5.25707 17.2621L5.28783 17.281L5.32279 17.3L5.35745 17.3153L5.39215 17.3306L5.42706 17.3459L5.46556 17.3612L5.50027 17.3726L5.53496 17.3879L5.56988 17.3994L5.60843 17.407L5.64313 17.4185L5.6819 17.4261L5.71655 17.4338L5.75514 17.4414L5.79369 17.4491L5.8325 17.4529L5.87105 17.4567L5.9096 17.4605L5.95204 17.4644L5.99059 17.4681H6.0294H6.07181H6.11429H6.15673L6.19913 17.4644L6.23794 17.4605L6.28039 17.4567L6.31894 17.4529L6.36138 17.4491L6.39998 17.4452L6.43874 17.4376L6.47729 17.4299L6.51199 17.4223L6.55079 17.4147L6.58545 17.4032L6.624 17.3918L6.65869 17.3803L6.69357 17.3688L6.72831 17.3573L6.76297 17.342L6.80178 17.3268L6.83643 17.3115L6.87498 17.2962L6.90968 17.2771L6.94455 17.2621L6.97925 17.243L7.01396 17.2238L7.04887 17.2048L7.07967 17.1857L7.1107 17.1665L7.1415 17.1437L7.1723 17.1245L7.20332 17.1017L7.23028 17.0825ZM6.01933 8.34234H7.69298V7.06733H6.01933V4.46438H7.75957V3.18937H4.59811V12.3913H7.78605V11.1162H6.01933V8.34234ZM18.0071 10.6956V8.61856H19.4019V10.7612C19.4019 11.905 18.8308 12.4702 17.6751 12.4702H16.971C15.8155 12.4702 15.2442 11.905 15.2442 10.7612V4.81942C15.2442 3.67566 15.8155 3.11046 16.971 3.11046H17.6619C18.8174 3.11046 19.3752 3.66262 19.3752 4.80617V6.68617H17.9806V4.88505C17.9806 4.51697 17.8078 4.34619 17.4492 4.34619H17.2101C16.8383 4.34619 16.6655 4.51697 16.6655 4.88505V10.6956C16.6655 11.0637 16.8383 11.2345 17.2101 11.2345H17.4759C17.8344 11.2345 18.0071 11.0637 18.0071 10.6956ZM13.0716 12.3913H14.4931V3.18934H13.0716V12.3913ZM10.478 7.81674C10.8367 7.81674 11.0092 7.64574 11.0092 7.27763V4.96393C11.0092 4.59589 10.8367 4.42507 10.478 4.42507H9.89348V7.81674H10.478ZM8.47215 3.18934H10.7037C11.8594 3.18934 12.4304 3.75454 12.4304 4.89831V7.3435C12.4304 8.48709 11.8594 9.05222 10.7037 9.05222H9.89348V12.3913H8.47215V3.18934Z" fill="white"/>
<path fill-rule="evenodd" clip-rule="evenodd" d="M7.95312 20.7119H16.0894L11.9365 22.0608L7.95312 20.7119Z" fill="white"/>
</g>
<defs>
<clipPath id="clip0_504_12893">
<rect width="24" height="24" fill="white"/>
</clipPath>
</defs>
</svg>
