<svg width="20" height="24" viewBox="0 0 20 24" fill="none" xmlns="http://www.w3.org/2000/svg">
<g clip-path="url(#clip0_504_12905)">
<path d="M2.00865 23.9235C1.84828 23.9746 1.67238 24 1.48097 24C1.25437 24 1.0502 23.9649 0.868439 23.8939C0.686336 23.8233 0.530789 23.7241 0.4018 23.5968C0.27281 23.4691 0.173481 23.3164 0.104158 23.1383C0.0348342 22.9595 0 22.7636 0 22.5497C0 22.3329 0.0337994 22.1353 0.101053 21.9572C0.168652 21.7788 0.264532 21.626 0.389039 21.4984C0.513545 21.3707 0.664608 21.2722 0.842572 21.2023C1.02088 21.132 1.21988 21.0973 1.43993 21.0973C1.55133 21.0973 1.65479 21.1056 1.75033 21.122C1.84586 21.1383 1.9345 21.162 2.01555 21.1933C2.0966 21.2242 2.17213 21.2622 2.24146 21.306C2.31078 21.3505 2.37562 21.4006 2.43598 21.4556L2.32768 21.6302C2.31078 21.6567 2.28871 21.6734 2.2618 21.6807C2.23525 21.688 2.20524 21.6817 2.17248 21.6619C2.14109 21.6434 2.10522 21.6208 2.06453 21.5944C2.02383 21.5683 1.97451 21.5425 1.91622 21.5182C1.85794 21.4938 1.7893 21.473 1.70998 21.4556C1.63065 21.4385 1.53684 21.4302 1.4282 21.4302C1.26955 21.4302 1.12642 21.4559 0.997774 21.5081C0.869474 21.5606 0.760143 21.6351 0.669781 21.7321C0.579419 21.8292 0.510096 21.9468 0.461466 22.0849C0.413181 22.2227 0.389039 22.3778 0.389039 22.5497C0.389039 22.7278 0.414216 22.8871 0.46457 23.028C0.514924 23.1686 0.587007 23.2886 0.680818 23.3867C0.774284 23.4851 0.888098 23.5599 1.02157 23.6118C1.15504 23.6632 1.30507 23.689 1.47131 23.689C1.53684 23.689 1.59823 23.6848 1.65514 23.6772C1.71205 23.6692 1.76654 23.658 1.81896 23.6441C1.87139 23.6302 1.92174 23.6132 1.97037 23.593C2.01866 23.5721 2.06798 23.5488 2.11764 23.5224V22.8962H1.67963C1.65479 22.8962 1.63445 22.8889 1.61962 22.8746C1.60478 22.86 1.59685 22.8422 1.59685 22.8207V22.6029H2.4615V23.6928C2.32009 23.7958 2.16903 23.8727 2.00865 23.9235Z" fill="white"/>
<path d="M5.41193 22.5498C5.41193 22.3755 5.38848 22.219 5.34123 22.0802C5.29398 21.9414 5.22741 21.8241 5.14084 21.7284C5.05428 21.6328 4.94977 21.559 4.82665 21.5075C4.70352 21.4557 4.56591 21.4303 4.41416 21.4303C4.26344 21.4303 4.12652 21.4557 4.00339 21.5075C3.88061 21.559 3.77542 21.6328 3.68816 21.7284C3.60124 21.8241 3.53399 21.9414 3.48674 22.0802C3.43984 22.219 3.41604 22.3755 3.41604 22.5498C3.41604 22.7241 3.43984 22.8803 3.48674 23.0184C3.53399 23.1565 3.60124 23.2734 3.68816 23.3691C3.77542 23.4647 3.88061 23.5381 4.00339 23.5889C4.12652 23.6397 4.26344 23.6655 4.41416 23.6655C4.56591 23.6655 4.70352 23.6397 4.82665 23.5889C4.94977 23.5381 5.05428 23.4647 5.14084 23.3691C5.22741 23.2734 5.29398 23.1565 5.34123 23.0184C5.38848 22.8803 5.41193 22.7241 5.41193 22.5498ZM5.80269 22.5498C5.80269 22.7624 5.76958 22.9575 5.70267 23.1353C5.63611 23.3127 5.54161 23.4658 5.41986 23.5938C5.29777 23.7222 5.15188 23.8217 4.98081 23.8923C4.80975 23.9629 4.62075 23.998 4.41416 23.998C4.20722 23.998 4.01856 23.9629 3.84819 23.8923C3.67816 23.8217 3.53192 23.7222 3.41017 23.5938C3.28843 23.4658 3.19427 23.3127 3.12736 23.1353C3.0608 22.9575 3.02734 22.7624 3.02734 22.5498C3.02734 22.3369 3.0608 22.1421 3.12736 21.964C3.19427 21.7865 3.28843 21.6335 3.41017 21.5044C3.53192 21.3757 3.67816 21.2755 3.84819 21.2042C4.01856 21.1329 4.20722 21.0974 4.41416 21.0974C4.62075 21.0974 4.80975 21.1329 4.98081 21.2042C5.15188 21.2755 5.29777 21.3757 5.41986 21.5044C5.54161 21.6335 5.63611 21.7865 5.70267 21.964C5.76958 22.1421 5.80269 22.3369 5.80269 22.5498Z" fill="white"/>
<path d="M8.33287 23.9235C8.1725 23.9746 7.9966 24 7.80519 24C7.57859 24 7.37442 23.9649 7.19266 23.8939C7.01055 23.8233 6.85501 23.7241 6.72602 23.5968C6.59703 23.4691 6.4977 23.3164 6.42838 23.1383C6.35905 22.9595 6.32422 22.7636 6.32422 22.5497C6.32422 22.3329 6.35802 22.1353 6.42527 21.9572C6.49287 21.7788 6.58875 21.626 6.71326 21.4984C6.83776 21.3707 6.98883 21.2722 7.16679 21.2023C7.3451 21.132 7.5441 21.0973 7.76414 21.0973C7.87555 21.0973 7.97901 21.1056 8.07455 21.122C8.17008 21.1383 8.25872 21.162 8.33977 21.1933C8.42082 21.2242 8.49635 21.2622 8.56568 21.306C8.635 21.3505 8.69984 21.4006 8.76019 21.4556L8.6519 21.6302C8.635 21.6567 8.61293 21.6734 8.58602 21.6807C8.55947 21.688 8.52946 21.6817 8.4967 21.6619C8.46531 21.6434 8.42944 21.6208 8.38875 21.5944C8.34805 21.5683 8.29873 21.5425 8.24044 21.5182C8.18215 21.4938 8.11352 21.473 8.0342 21.4556C7.95487 21.4385 7.86106 21.4302 7.75242 21.4302C7.59377 21.4302 7.45064 21.4559 7.32199 21.5081C7.19369 21.5606 7.08436 21.6351 6.994 21.7321C6.90364 21.8292 6.83431 21.9468 6.78568 22.0849C6.7374 22.2227 6.71326 22.3778 6.71326 22.5497C6.71326 22.7278 6.73843 22.8871 6.78879 23.028C6.83914 23.1686 6.91123 23.2886 7.00504 23.3867C7.0985 23.4851 7.21232 23.5599 7.34579 23.6118C7.47926 23.6632 7.62929 23.689 7.79553 23.689C7.86106 23.689 7.92245 23.6848 7.97936 23.6772C8.03627 23.6692 8.09076 23.658 8.14318 23.6441C8.19561 23.6302 8.24596 23.6132 8.29459 23.593C8.34287 23.5721 8.39219 23.5488 8.44186 23.5224V22.8962H8.00385C7.97901 22.8962 7.95866 22.8889 7.94383 22.8746C7.929 22.86 7.92142 22.8422 7.92142 22.8207V22.6029H8.78572V23.6928C8.64431 23.7958 8.49325 23.8727 8.33287 23.9235Z" fill="white"/>
<path d="M9.44922 23.7504C9.44922 23.7163 9.45543 23.6839 9.46784 23.6536C9.48026 23.623 9.49716 23.5966 9.51889 23.5743C9.54061 23.5517 9.56648 23.534 9.59649 23.5208C9.62649 23.5075 9.65857 23.5009 9.69271 23.5009C9.72685 23.5009 9.75893 23.5075 9.78893 23.5208C9.81894 23.534 9.84515 23.5517 9.86757 23.5743C9.88964 23.5966 9.90758 23.623 9.92068 23.6536C9.93344 23.6839 9.94034 23.7163 9.94034 23.7504C9.94034 23.7858 9.93344 23.8189 9.92068 23.8485C9.90758 23.8784 9.88964 23.9045 9.86757 23.9267C9.84515 23.9493 9.81894 23.9667 9.78893 23.9793C9.75893 23.9918 9.72685 23.998 9.69271 23.998C9.65857 23.998 9.62649 23.9918 9.59649 23.9793C9.56648 23.9667 9.54061 23.9493 9.51889 23.9267C9.49716 23.9045 9.48026 23.8784 9.46784 23.8485C9.45543 23.8189 9.44922 23.7858 9.44922 23.7504Z" fill="white"/>
<path d="M12.5592 23.3818C12.5802 23.3818 12.5985 23.3902 12.614 23.4076L12.7654 23.5721C12.6502 23.7067 12.5102 23.8118 12.346 23.8873C12.1815 23.9624 11.9829 24 11.7497 24C11.548 24 11.3648 23.9649 11.1996 23.8939C11.0348 23.8233 10.894 23.7245 10.7775 23.5968C10.6609 23.4691 10.5705 23.3164 10.5064 23.1383C10.4422 22.9595 10.4102 22.7636 10.4102 22.5497C10.4102 22.3354 10.4436 22.1395 10.5102 21.9611C10.5771 21.7829 10.6709 21.6295 10.7923 21.5015C10.9134 21.3731 11.0582 21.274 11.2272 21.203C11.3962 21.1324 11.5828 21.0973 11.7873 21.0973C11.9873 21.0973 12.1643 21.1296 12.3174 21.1943C12.4705 21.259 12.6057 21.3467 12.7223 21.4577L12.5964 21.634C12.5885 21.6473 12.5785 21.658 12.5661 21.6667C12.5533 21.6754 12.5368 21.6796 12.5157 21.6796C12.4923 21.6796 12.4636 21.6667 12.4295 21.641C12.3954 21.6156 12.3509 21.5864 12.2957 21.5551C12.2408 21.5231 12.1722 21.4945 12.0898 21.4688C12.0073 21.4427 11.9056 21.4302 11.7852 21.4302C11.6397 21.4302 11.5069 21.4552 11.3865 21.5064C11.2658 21.5572 11.162 21.6309 11.0751 21.7273C10.9878 21.8236 10.9203 21.9412 10.8716 22.08C10.8233 22.2188 10.7988 22.3754 10.7988 22.5497C10.7988 22.7264 10.8244 22.8843 10.8747 23.0231C10.9251 23.1619 10.9941 23.2792 11.081 23.3749C11.1679 23.4705 11.2707 23.5436 11.3893 23.5937C11.5079 23.6438 11.6359 23.6692 11.7732 23.6692C11.8573 23.6692 11.9329 23.6643 12.0005 23.6542C12.0677 23.6441 12.1298 23.6288 12.187 23.6076C12.2439 23.5867 12.2971 23.5596 12.346 23.5276C12.395 23.4952 12.4436 23.4563 12.4923 23.4114C12.5147 23.3916 12.5368 23.3818 12.5592 23.3818Z" fill="white"/>
<path d="M15.494 22.5498C15.494 22.3755 15.4705 22.219 15.4233 22.0802C15.376 21.9414 15.3094 21.8241 15.2229 21.7284C15.1363 21.6328 15.0318 21.559 14.9087 21.5075C14.7856 21.4557 14.6479 21.4303 14.4962 21.4303C14.3455 21.4303 14.2085 21.4557 14.0854 21.5075C13.9626 21.559 13.8574 21.6328 13.7702 21.7284C13.6833 21.8241 13.616 21.9414 13.5688 22.0802C13.5219 22.219 13.4981 22.3755 13.4981 22.5498C13.4981 22.7241 13.5219 22.8803 13.5688 23.0184C13.616 23.1565 13.6833 23.2734 13.7702 23.3691C13.8574 23.4647 13.9626 23.5381 14.0854 23.5889C14.2085 23.6397 14.3455 23.6655 14.4962 23.6655C14.6479 23.6655 14.7856 23.6397 14.9087 23.5889C15.0318 23.5381 15.1363 23.4647 15.2229 23.3691C15.3094 23.2734 15.376 23.1565 15.4233 23.0184C15.4705 22.8803 15.494 22.7241 15.494 22.5498ZM15.8847 22.5498C15.8847 22.7624 15.8516 22.9575 15.7847 23.1353C15.7178 23.3127 15.6236 23.4658 15.5019 23.5938C15.3798 23.7222 15.2339 23.8217 15.0628 23.8923C14.8918 23.9629 14.7028 23.998 14.4962 23.998C14.2893 23.998 14.1006 23.9629 13.9302 23.8923C13.7602 23.8217 13.614 23.7222 13.4922 23.5938C13.3705 23.4658 13.2763 23.3127 13.2094 23.1353C13.1428 22.9575 13.1094 22.7624 13.1094 22.5498C13.1094 22.3369 13.1428 22.1421 13.2094 21.964C13.2763 21.7865 13.3705 21.6335 13.4922 21.5044C13.614 21.3757 13.7602 21.2755 13.9302 21.2042C14.1006 21.1329 14.2893 21.0974 14.4962 21.0974C14.7028 21.0974 14.8918 21.1329 15.0628 21.2042C15.2339 21.2755 15.3798 21.3757 15.5019 21.5044C15.6236 21.6335 15.7178 21.7865 15.7847 21.964C15.8516 22.1421 15.8847 22.3369 15.8847 22.5498Z" fill="white"/>
<path d="M18.0006 23.0417C18.0151 23.0765 18.0292 23.1113 18.0437 23.1454C18.0568 23.1099 18.0706 23.0744 18.0851 23.0396C18.0992 23.0048 18.1151 22.9711 18.132 22.9398L19.087 21.1937C19.1025 21.1635 19.1198 21.145 19.1387 21.1384C19.1577 21.1318 19.1843 21.1287 19.2184 21.1287H19.4995V23.9678H19.1653V21.8815C19.1653 21.8537 19.166 21.8241 19.1674 21.7921C19.1687 21.7604 19.1708 21.7284 19.1732 21.695L18.2086 23.4706C18.1785 23.5298 18.1327 23.5597 18.0713 23.5597H18.0161C17.9547 23.5597 17.9088 23.5298 17.8788 23.4706L16.8928 21.6891C16.8966 21.7239 16.8993 21.7573 16.9014 21.79C16.9035 21.8234 16.9045 21.8537 16.9045 21.8815V23.9678H16.5703V21.1287H16.8514C16.8855 21.1287 16.9114 21.1318 16.93 21.1384C16.9483 21.145 16.9659 21.1635 16.9828 21.1937L17.9554 22.9415C17.9709 22.9732 17.9861 23.0066 18.0006 23.0417Z" fill="white"/>
<path fill-rule="evenodd" clip-rule="evenodd" d="M5.8089 12.016H3.54434H3.54054C3.36258 12.016 3.21979 12.1618 3.21979 12.3413C3.21979 12.3413 3.22048 12.3413 3.22048 12.3434H3.21979V13.976H3.22048L3.21979 13.9774C3.21979 14.1562 3.36258 14.3033 3.54054 14.3033H3.54434H3.77886H5.8089V15.3926H2.97837V15.3898C2.51518 15.3898 2.14062 15.012 2.14062 14.5462V11.77C2.14062 11.3067 2.51518 10.9289 2.97837 10.9289H5.8089V12.016Z" fill="white"/>
<path fill-rule="evenodd" clip-rule="evenodd" d="M6.63043 8.98398C6.63043 9.45884 6.25002 9.84082 5.78131 9.84082H2.14062V8.73698H5.20672H5.21017C5.39089 8.73698 5.53575 8.58809 5.53575 8.40684V8.40475V4.76065V4.75822C5.53575 4.57628 5.39089 4.42877 5.21017 4.42877H5.20672H3.564H3.56055C3.38017 4.42877 3.23497 4.57628 3.23497 4.75822V4.76065V6.41659V6.41867C3.23497 6.60097 3.38017 6.74882 3.56055 6.74882H3.564H4.87838V7.85266H2.98941C2.51966 7.85266 2.14062 7.46998 2.14062 6.99651V4.18073C2.14062 3.70761 2.51966 3.32424 2.98941 3.32424H5.78131C6.25002 3.32424 6.63043 3.70761 6.63043 4.18073V8.98398Z" fill="white"/>
<path fill-rule="evenodd" clip-rule="evenodd" d="M17.3561 15.3898H16.2773V12.016H15.5226H15.5192C15.3409 12.016 15.1981 12.1618 15.1981 12.3413V12.3434V15.3898H14.1193V12.016H13.3629H13.3609C13.1822 12.016 13.0394 12.1618 13.0394 12.3413V12.3434V15.3926H11.9609V11.77C11.9609 11.3067 12.3345 10.9289 12.7976 10.9289H17.3561V15.3898Z" fill="white"/>
<path fill-rule="evenodd" clip-rule="evenodd" d="M17.3609 8.98398C17.3609 9.45884 16.9801 9.84082 16.5121 9.84082H12.8711V8.73698H15.9386H15.9406C16.122 8.73698 16.2676 8.58809 16.2676 8.40684V8.40475V4.76065V4.75822C16.2676 4.57628 16.122 4.42877 15.9406 4.42877H15.9386H14.2945H14.2914C14.1127 4.42877 13.9668 4.57628 13.9668 4.75822V4.76065V6.41659V6.41867C13.9668 6.60097 14.1127 6.74882 14.2914 6.74882H14.2945H15.6085V7.85266H13.7206C13.2508 7.85266 12.8711 7.46998 12.8711 6.99651V4.18073C12.8711 3.70761 13.2508 3.32424 13.7206 3.32424H16.5121C16.9801 3.32424 17.3609 3.70761 17.3609 4.18073V8.98398Z" fill="white"/>
<path fill-rule="evenodd" clip-rule="evenodd" d="M10.8963 4.76151V6.4171V6.41919C10.8963 6.60148 10.7545 6.74968 10.5735 6.74968H10.5697H8.92694H8.92452C8.74345 6.74968 8.5986 6.60148 8.5986 6.41919V6.4171V4.76151V4.75873C8.5986 4.57679 8.74345 4.42963 8.92452 4.42963H8.92694H10.5697H10.5735C10.7545 4.42963 10.8963 4.57679 10.8963 4.75873V4.76151ZM11.1449 3.3251H8.352C7.88294 3.3251 7.50391 3.70846 7.50391 4.18159V6.99737C7.50391 7.47049 7.88294 7.85352 8.352 7.85352H11.1449C11.6126 7.85352 11.9934 7.47049 11.9934 6.99737V4.18159C11.9934 3.70846 11.6126 3.3251 11.1449 3.3251Z" fill="white"/>
<path fill-rule="evenodd" clip-rule="evenodd" d="M10.0212 12.3432V13.9758C10.0212 14.1553 9.87845 14.3018 9.70118 14.3018C9.69945 14.3018 9.69911 14.3001 9.69738 14.3001V14.3018H8.07915V14.3001C8.07915 14.3001 8.07742 14.3018 8.0757 14.3018C7.89774 14.3018 7.75495 14.1553 7.75495 13.9758V12.3432V12.3411C7.75495 12.1616 7.89774 12.0158 8.0757 12.0158H8.07915H9.69738H9.70118C9.87845 12.0158 10.0212 12.1616 10.0212 12.3411V12.3432ZM10.2637 10.9287H7.51284C7.04964 10.9287 6.67578 11.3065 6.67578 11.7699V14.546C6.67578 15.0118 7.04964 15.3896 7.51284 15.3896H10.2637C10.7252 15.3896 11.0997 15.0118 11.0997 14.546V11.7699C11.0997 11.3065 10.7252 10.9287 10.2637 10.9287Z" fill="white"/>
<path d="M19.0853 17.2859C19.0853 17.5663 18.9732 17.8182 18.7911 18.0022C18.609 18.1856 18.359 18.2983 18.0817 18.2983H1.4182C1.14056 18.2983 0.890857 18.1856 0.708754 18.0022C0.526651 17.8182 0.415252 17.5663 0.414562 17.2859V1.43005C0.415252 1.15 0.526651 0.898479 0.708754 0.714449C0.890857 0.531113 1.14056 0.418398 1.4182 0.418051H18.0817C18.359 0.418398 18.609 0.531113 18.7911 0.714449C18.9732 0.898479 19.0853 1.15 19.0853 1.43005V17.2859ZM19.0839 0.418745C18.828 0.15992 18.4728 -0.000106812 18.0817 -0.000106812H1.4182C1.02709 -0.000106812 0.671851 0.15992 0.415941 0.418745C0.159341 0.676876 0 1.03589 0 1.43005V17.2859C0 17.6804 0.159341 18.0395 0.415941 18.2976C0.671851 18.5561 1.02709 18.7168 1.4182 18.7168H18.0817C18.4728 18.7168 18.828 18.5561 19.0839 18.2976C19.3405 18.0395 19.4999 17.6804 19.4999 17.2859V1.43005C19.4999 1.03589 19.3405 0.676876 19.0839 0.418745Z" fill="white"/>
</g>
<defs>
<clipPath id="clip0_504_12905">
<rect width="19.5" height="24" fill="white"/>
</clipPath>
</defs>
</svg>
