<svg width="24" height="24" viewBox="0 0 24 24" fill="none" xmlns="http://www.w3.org/2000/svg">
<g clip-path="url(#clip0_504_12887)">
<path fill-rule="evenodd" clip-rule="evenodd" d="M0.519856 15.4999C2.01768 20.4203 6.59154 24 12.0016 24C18.6289 24 24.0016 18.6273 24.0016 12C24.0016 5.3726 18.6289 0 12.0016 0C5.642 0 0.438331 4.9472 0.0273438 11.2028C0.0290723 11.2057 0.0307984 11.2085 0.0325222 11.2114C0.0325476 11.211 0.0325677 11.2106 0.0325824 11.2104L0.0326111 11.2099L6.48058 13.8643C6.656 13.749 6.84295 13.649 7.04246 13.5676C7.49507 13.3813 7.97235 13.2978 8.44808 13.3195L11.3845 9.05385C11.3835 9.03487 11.3835 9.0147 11.3835 8.99452C11.3835 6.47707 13.4281 4.42914 15.9414 4.42914C18.4558 4.42914 20.4994 6.47707 20.4994 8.99452C20.4994 11.5118 18.4558 13.5615 15.9414 13.5615C15.9074 13.5615 15.8724 13.5604 15.8384 13.5595L11.6369 16.562C11.6492 17.0255 11.5637 17.4901 11.3804 17.933C10.6758 19.6274 8.72295 20.434 7.02928 19.7263C5.99408 19.2947 5.29242 18.3976 5.06354 17.3747L0.519856 15.4999ZM7.3214 19.0238C8.62913 19.5687 10.1336 18.9476 10.679 17.6384C10.9427 17.006 10.9436 16.3055 10.6831 15.671C10.4225 15.0365 9.93068 14.54 9.29693 14.2763C8.66828 14.0147 7.99545 14.023 7.4036 14.2475L8.93745 14.8831C9.90135 15.2848 10.3576 16.3931 9.95543 17.3582C9.55455 18.3223 8.44808 18.7797 7.48363 18.378L5.99986 17.7631C6.26262 18.3121 6.7181 18.7725 7.3214 19.0238ZM12.9049 8.99452C12.9049 10.6722 14.2676 12.0371 15.9414 12.0371C17.6163 12.0371 18.9791 10.6722 18.9791 8.99452C18.9791 7.3181 17.6163 5.95288 15.9414 5.95288C14.2676 5.95288 12.9049 7.3181 12.9049 8.99452ZM15.9466 6.70409C14.6879 6.70409 13.6661 7.72777 13.6661 8.98987C13.6661 10.252 14.6879 11.2748 15.9466 11.2748C17.2063 11.2748 18.2281 10.252 18.2281 8.98987C18.2281 7.72777 17.2063 6.70409 15.9466 6.70409Z" fill="white"/>
</g>
<defs>
<clipPath id="clip0_504_12887">
<rect width="24" height="24" fill="white"/>
</clipPath>
</defs>
</svg>
