<svg width="24" height="24" viewBox="0 0 24 24" fill="none" xmlns="http://www.w3.org/2000/svg">
<g clip-path="url(#clip0_504_12911)">
<path d="M0 18.2021V20.8796C0 21.9667 0.741439 22.6595 1.82129 22.6595C2.95713 22.6595 3.65237 21.9289 3.65237 20.8062V18.2021H2.69097V20.7573C2.69097 21.3695 2.38255 21.749 1.83151 21.749C1.22761 21.749 0.96141 21.3125 0.96141 20.8062V18.2021H0Z" fill="white"/>
<path d="M4.12109 18.2393V22.616H5.65235C6.50043 22.616 7.22105 22.1837 7.22105 21.3262C7.22105 20.4311 6.43747 20.2328 6.43747 20.2328C6.43747 20.2328 7.01771 20.0717 7.01771 19.3059C7.01771 18.5407 6.2843 18.2393 5.65235 18.2393H4.12109ZM5.08969 19.0706H5.55449C5.87708 19.0706 6.08351 19.2404 6.08351 19.5359C6.08351 19.8002 5.9084 19.9997 5.57896 19.9997H5.08969V19.0706ZM5.08969 20.6843H5.60342C6.08649 20.6843 6.25399 20.9324 6.25399 21.2284C6.25399 21.5728 6.03734 21.7747 5.65235 21.7747H5.08969V20.6843Z" fill="white"/>
<path d="M7.58594 18.2393H8.55224V22.616H7.58594V18.2393Z" fill="white"/>
<path d="M18.1265 22.616H17.1602V18.2393H20.1936V19.1439H18.1265V20.1464H20.0102V20.8799H18.1265V22.616Z" fill="white"/>
<path d="M20.5508 18.2393V19.1439H21.7984V22.616H22.7769V19.1439H24.0001V18.2393H20.5508Z" fill="white"/>
<path d="M9.65434 21.1587L8.88672 21.7197C8.88672 21.7197 9.15199 22.6894 10.4817 22.6894C11.3673 22.6894 12.0189 22.1729 12.0189 21.2648C12.0189 19.8013 9.97159 20.1118 9.97159 19.3592C9.97159 19.1611 10.1478 18.9862 10.473 18.9862C10.9949 18.9862 11.1932 19.4979 11.1932 19.4979L11.961 18.9592C11.961 18.9592 11.6612 18.1602 10.5117 18.1602C9.56697 18.1602 9.06514 18.7659 9.06514 19.391C9.06514 20.8824 11.0528 20.5587 11.0528 21.3414C11.0528 21.6054 10.8446 21.7995 10.5202 21.7973C9.87769 21.7973 9.65434 21.1587 9.65434 21.1587Z" fill="white"/>
<path d="M14.5119 18.1592C13.374 18.1592 12.8668 18.7766 12.8668 18.7766L13.0135 18.9233C13.0135 18.9233 12.2773 19.446 12.2773 20.5684C12.2773 21.8599 13.2739 22.6895 14.5172 22.6895C15.9619 22.6895 16.7816 21.6241 16.7816 20.4263C16.7816 19.149 15.8458 18.1592 14.5119 18.1592ZM14.5325 19.0677C15.3041 19.0677 15.8046 19.6572 15.8046 20.4225C15.8046 21.1798 15.31 21.7856 14.5325 21.7856C13.7644 21.7856 13.2597 21.2495 13.2597 20.5378C13.2597 19.8902 13.6985 19.6079 13.6985 19.6079L13.5394 19.449C13.5394 19.449 13.8778 19.0677 14.5325 19.0677Z" fill="white"/>
<path d="M11.1341 0.75C6.07698 0.75 3.8941 5.30937 3.8941 5.30937L4.53666 5.77526C4.53666 5.77526 3.72808 7.33275 3.75046 9.33045C3.75046 13.4084 6.95541 17.25 11.6734 17.25C15.9594 17.25 19.5 13.7165 19.5 9.34043C19.5 3.63314 15.1304 0.75 11.1341 0.75ZM11.178 2.14124C15.1291 2.14124 18.1951 5.36621 18.1951 9.11543C18.1951 13.0898 15.244 15.8537 11.805 15.8537C9.27397 15.8537 6.9908 13.9015 6.9908 11.2249C6.9908 9.6789 7.80202 8.60108 8.7111 8.02665L8.84415 8.17283C8.59537 8.37 7.88595 9.52418 7.88595 10.6586C7.88595 12.7646 9.51645 14.2231 11.5708 14.2231C14.1875 14.2231 15.9327 11.9624 15.9327 9.33757C15.9327 6.28363 13.2712 3.6909 10.0684 3.6909C8.29687 3.6909 6.79328 4.46257 5.92932 5.14379L5.79487 5.02051C6.92518 3.25528 8.88262 2.14124 11.178 2.14124ZM9.99907 5.06279C12.0429 5.06279 14.0384 6.43237 14.5365 8.37645L14.3554 8.44598C13.461 7.24972 11.9956 6.25837 10.2651 6.25837C7.08082 6.25837 5.40853 9.18915 5.65404 11.637L5.46652 11.7065C5.46652 11.7065 5.11481 10.9205 5.11481 9.98842C5.11481 7.28929 7.3032 5.06279 9.99907 5.06279ZM11.35 8.45025C12.3176 8.45025 13.0915 9.24465 13.0915 10.1877C13.0915 10.9681 12.5968 11.4306 12.5968 11.4306L13.1827 11.8456C13.1827 11.8456 12.6017 12.7695 11.4157 12.7695C10.2813 12.7695 9.27795 11.842 9.27795 10.5948C9.27795 9.30968 10.3693 8.45025 11.35 8.45025Z" fill="white"/>
</g>
<defs>
<clipPath id="clip0_504_12911">
<rect width="24" height="24" fill="white"/>
</clipPath>
</defs>
</svg>
