<svg width="24" height="24" viewBox="0 0 24 24" fill="none" xmlns="http://www.w3.org/2000/svg">
<g clip-path="url(#clip0_1559_5017)">
<path d="M10.8361 23.7025C9.02844 23.5294 7.19844 22.8803 5.62644 21.8545C4.30917 20.9955 4.0119 20.6417 4.0119 19.9367C4.0119 18.5205 5.56917 16.0395 8.23372 13.2118C9.74653 11.6055 11.8542 9.72364 12.0819 9.77436C12.5254 9.87336 16.0681 13.3291 17.3946 14.9562C19.4919 17.528 20.4557 19.6345 19.9659 20.5735C19.5936 21.2873 17.2831 22.6825 15.5859 23.2185C14.1868 23.6603 12.3494 23.8474 10.8361 23.7025ZM2.23263 18.4643C1.1379 16.7848 0.584808 15.1315 0.318081 12.7403C0.229717 11.9507 0.260808 11.4994 0.51799 9.87827C0.837899 7.86009 1.98799 5.52282 3.37072 4.08554C3.95926 3.47463 4.01163 3.45827 4.72944 3.701C5.59944 3.99554 6.52944 4.63809 7.97217 5.94282L8.8149 6.70482L8.35399 7.26936C6.21908 9.89027 3.96581 13.6075 3.11763 15.9066C2.65672 17.1557 2.47126 18.4103 2.67035 18.9325C2.80399 19.2855 2.68126 19.154 2.23126 18.4651L2.23263 18.4643ZM21.4471 18.7498C21.5554 18.2218 21.4184 17.2525 21.098 16.2745C20.4039 14.1568 18.0833 10.2173 15.9524 7.53854L15.2815 6.69527L16.0075 6.029C16.955 5.159 17.6128 4.63809 18.323 4.19545C18.8829 3.84636 19.6834 3.53736 20.0275 3.53736C20.2394 3.53736 20.9864 4.31463 21.5892 5.16009C22.523 6.46918 23.2097 8.05918 23.5577 9.71191C23.7827 10.781 23.8015 13.0665 23.594 14.1328C23.4222 15.0077 23.0622 16.1417 22.7131 16.9111C22.4485 17.4874 21.7967 18.6069 21.5104 18.9713C21.3631 19.1586 21.3631 19.1584 21.4449 18.7542L21.4471 18.7498ZM11.0297 3.13754C10.0463 2.63845 8.52935 2.10254 7.69153 1.958C7.39808 1.90754 6.89708 1.87891 6.57881 1.89527C5.88717 1.93018 5.91799 1.89418 7.0269 1.37027C7.94872 0.934726 8.71781 0.678635 9.76235 0.459362C10.9364 0.212544 13.1442 0.209816 14.2997 0.453362C15.5474 0.716544 17.0172 1.26336 17.8452 1.77336L18.0917 1.92445L17.5272 1.89609C16.4046 1.83936 14.7688 2.29291 13.0124 3.14709C12.4828 3.40509 12.0224 3.61073 11.9886 3.60527C11.9551 3.59873 11.5234 3.38845 11.0286 3.13754H11.0297Z" fill="white"/>
</g>
<defs>
<clipPath id="clip0_1559_5017">
<rect width="24" height="24" fill="white"/>
</clipPath>
</defs>
</svg>
