<svg width="112" height="112" viewBox="0 0 112 112" fill="none" xmlns="http://www.w3.org/2000/svg">
<path d="M88.7719 55.7118L61.9424 82.5414L66.8731 87.4721L93.7026 60.6425L88.7719 55.7118Z" stroke="#DDDDDD" stroke-width="3" stroke-miterlimit="10"/>
<path d="M88.7495 55.741L61.9199 82.5705L66.8507 87.5013L93.6802 60.6717L88.7495 55.741Z" stroke="#DDDDDD" stroke-width="3" stroke-miterlimit="10" stroke-linecap="round" stroke-linejoin="round"/>
<path d="M24.2397 18.0529L25.7334 33.8708L68.1752 76.3127L82.4995 61.9884L40.0576 19.5466L24.2397 18.0529Z" stroke="#DDDDDD" stroke-width="3" stroke-miterlimit="10" stroke-linecap="round" stroke-linejoin="round"/>
<path d="M92.901 81.4053L82.9226 71.418L77.605 76.7446L87.5834 86.723" stroke="#DDDDDD" stroke-width="3" stroke-miterlimit="10" stroke-linecap="round" stroke-linejoin="round"/>
<path d="M93.7823 93.7771C97.2161 93.7771 99.9997 90.9935 99.9997 87.5598C99.9997 84.126 97.2161 81.3424 93.7823 81.3424C90.3485 81.3424 87.5649 84.126 87.5649 87.5598C87.5649 90.9935 90.3485 93.7771 93.7823 93.7771Z" stroke="#DDDDDD" stroke-width="3" stroke-miterlimit="10" stroke-linecap="round" stroke-linejoin="round"/>
<path d="M36.6113 30.3887L70.2445 64.0219" stroke="#DDDDDD" stroke-width="3" stroke-miterlimit="10" stroke-linecap="round" stroke-linejoin="round"/>
<path d="M50.6064 82.6169L23.7769 55.7874L18.8461 60.7181L45.6757 87.5477L50.6064 82.6169Z" stroke="#DDDDDD" stroke-width="3" stroke-miterlimit="10" stroke-linecap="round" stroke-linejoin="round"/>
<path d="M24.9414 86.7679L34.9197 76.7895L29.6021 71.4719L19.6147 81.4503" stroke="#DDDDDD" stroke-width="3" stroke-miterlimit="10" stroke-linecap="round" stroke-linejoin="round"/>
<path d="M18.7872 93.8671C22.221 93.8671 25.0046 91.0835 25.0046 87.6497C25.0046 84.216 22.221 81.4323 18.7872 81.4323C15.3534 81.4323 12.5698 84.216 12.5698 87.6497C12.5698 91.0835 15.3534 93.8671 18.7872 93.8671Z" stroke="#DDDDDD" stroke-width="3" stroke-miterlimit="10" stroke-linecap="round" stroke-linejoin="round"/>
<path d="M37.5834 54.4844L30.0254 62.0424L44.3496 76.3667L51.9077 68.8086" stroke="#DDDDDD" stroke-width="3" stroke-miterlimit="10" stroke-linecap="round" stroke-linejoin="round"/>
<path d="M75.8052 44.9109L86.7913 33.9248L88.2849 18.1069L72.4671 19.6005L61.481 30.5867" stroke="#DDDDDD" stroke-width="3" stroke-miterlimit="10" stroke-linecap="round" stroke-linejoin="round"/>
</svg>
