<svg width="112" height="112" viewBox="0 0 112 112" fill="none" xmlns="http://www.w3.org/2000/svg">
<path d="M56.5 97C78.8675 97 97 78.6437 97 56C97 33.3563 78.8675 15 56.5 15C34.1325 15 16 33.3563 16 56C16 78.6437 34.1325 97 56.5 97Z" stroke="#DDDDDD" stroke-width="3" stroke-miterlimit="10" stroke-linecap="round" stroke-linejoin="round"/>
<path d="M56.5 61C59.5376 61 62 58.7614 62 56C62 53.2386 59.5376 51 56.5 51C53.4624 51 51 53.2386 51 56C51 58.7614 53.4624 61 56.5 61Z" stroke="#DDDDDD" stroke-width="3" stroke-miterlimit="10" stroke-linecap="round" stroke-linejoin="round"/>
<path d="M48.4284 64.4549C48.321 64.3573 48.2039 64.2597 48.0966 64.1524C34.5508 55.8961 25.0454 61.088 24.9575 61.1368C27.0167 73.7262 36.4636 83.8172 48.7114 86.823C53.1811 83.339 50.8389 67.207 48.4284 64.4549Z" stroke="#DDDDDD" stroke-width="3" stroke-miterlimit="10" stroke-linecap="round" stroke-linejoin="round"/>
<path d="M64.5311 64.1329C64.4042 64.2598 64.2676 64.3769 64.1407 64.494C61.7497 67.373 59.4466 83.3586 63.8968 86.8133C76.1445 83.8172 85.5914 73.7262 87.6506 61.1369H87.6409C87.6506 61.1271 78.1257 55.8572 64.5311 64.1329Z" stroke="#DDDDDD" stroke-width="3" stroke-miterlimit="10" stroke-linecap="round" stroke-linejoin="round"/>
<path d="M47.1012 48.9183H47.111C49.2287 46.1564 52.5566 44.3705 56.3041 44.3705C60.0517 44.3705 63.3795 46.1564 65.4973 48.9183L82.127 49.7673L86.8211 47.1031C82.976 33.8696 70.777 24.1885 56.3041 24.1885C41.8312 24.1885 29.6322 33.8696 25.7969 47.1031L30.4813 49.7673L47.1012 48.9183Z" stroke="#DDDDDD" stroke-width="3" stroke-miterlimit="10" stroke-linecap="round" stroke-linejoin="round"/>
<path d="M44.5 58C45.8807 58 47 57.1046 47 56C47 54.8954 45.8807 54 44.5 54C43.1193 54 42 54.8954 42 56C42 57.1046 43.1193 58 44.5 58Z" fill="#DDDDDD"/>
<path d="M68.5 58C69.8807 58 71 57.1046 71 56C71 54.8954 69.8807 54 68.5 54C67.1193 54 66 54.8954 66 56C66 57.1046 67.1193 58 68.5 58Z" fill="#DDDDDD"/>
</svg>
