<svg width="112" height="112" viewBox="0 0 112 112" fill="none" xmlns="http://www.w3.org/2000/svg">
<g clip-path="url(#clip0_1908_47552)">
<path d="M13.3787 75.953L12.318 74.8923L11.2573 75.953L12.318 77.0137L13.3787 75.953ZM24.6319 87.2062L25.6925 86.1456L24.6319 87.2062ZM16.5589 72.7727L16.8422 71.2997L16.0609 71.1495L15.4983 71.7121L16.5589 72.7727ZM29.28 75.2191L28.9967 76.6921L29.8726 76.8605L30.4389 76.1715L29.28 75.2191ZM49.5847 50.5109L50.7436 51.4633L51.981 49.9575L50.2086 49.1468L49.5847 50.5109ZM18.0267 36.0774L17.0416 34.9463L15.2875 36.474L17.4028 37.4415L18.0267 36.0774ZM25.6104 29.4723L25.8788 27.9965L25.1691 27.8675L24.6253 28.3412L25.6104 29.4723ZM63.2843 36.3221L63.016 37.7979L63.7559 37.9324L64.3064 37.4199L63.2843 36.3221ZM75.516 48.5538L74.4182 47.5317L73.9057 48.0822L74.0402 48.8222L75.516 48.5538ZM82.3658 86.2277L83.497 87.2129L83.9707 86.669L83.8416 85.9594L82.3658 86.2277ZM75.7607 93.8114L74.3966 94.4353L75.3641 96.5506L76.8918 94.7966L75.7607 93.8114ZM61.3272 62.2534L62.6913 61.6295L61.8806 59.8571L60.3748 61.0945L61.3272 62.2534ZM36.619 82.5582L35.6667 81.3993L34.9776 81.9656L35.146 82.8414L36.619 82.5582ZM39.0654 95.2792L40.126 96.3399L40.6886 95.7773L40.5384 94.9959L39.0654 95.2792ZM35.8851 98.4595L34.8245 99.5201L35.8851 100.581L36.9458 99.5201L35.8851 98.4595ZM12.318 77.0137L23.5712 88.2669L25.6925 86.1456L14.4393 74.8923L12.318 77.0137ZM15.4983 71.7121L12.318 74.8923L14.4393 77.0137L17.6196 73.8334L15.4983 71.7121ZM29.5632 73.7461L16.8422 71.2997L16.2756 74.2458L28.9967 76.6921L29.5632 73.7461ZM48.4258 49.5586L28.1211 74.2667L30.4389 76.1715L50.7436 51.4633L48.4258 49.5586ZM17.4028 37.4415L48.9608 51.875L50.2086 49.1468L18.6506 34.7133L17.4028 37.4415ZM24.6253 28.3412L17.0416 34.9463L19.0119 37.2086L26.5956 30.6034L24.6253 28.3412ZM63.5526 34.8463L25.8788 27.9965L25.3421 30.9481L63.016 37.7979L63.5526 34.8463ZM91.0102 20.8279C89.34 19.1577 86.8176 19.3808 84.614 20.0449C82.2861 20.7465 79.6139 22.142 76.9402 23.8158C71.5715 27.1767 65.8569 31.8774 62.2622 35.2242L64.3064 37.4199C67.8061 34.1616 73.3692 29.5906 78.532 26.3586C81.1241 24.7359 83.5311 23.5046 85.4798 22.9173C87.5527 22.2925 88.5041 22.5645 88.8889 22.9492L91.0102 20.8279ZM88.8889 22.9492C89.2736 23.334 89.5456 24.2854 88.9208 26.3584C88.3335 28.307 87.1022 30.714 85.4795 33.3061C82.2475 38.4689 77.6766 44.032 74.4182 47.5317L76.6139 49.576C79.9607 45.9813 84.6614 40.2666 88.0223 34.8979C89.6961 32.2242 91.0916 29.552 91.7932 27.2241C92.4574 25.0205 92.6804 22.4981 91.0102 20.8279L88.8889 22.9492ZM74.0402 48.8222L80.89 86.496L83.8416 85.9594L76.9919 48.2855L74.0402 48.8222ZM81.2347 85.2425L74.6296 92.8262L76.8918 94.7966L83.497 87.2129L81.2347 85.2425ZM77.1248 93.1875L62.6913 61.6295L59.9631 62.8773L74.3966 94.4353L77.1248 93.1875ZM60.3748 61.0945L35.6667 81.3993L37.5714 83.717L62.2796 63.4123L60.3748 61.0945ZM35.146 82.8414L37.5924 95.5625L40.5384 94.9959L38.092 82.2749L35.146 82.8414ZM38.0047 94.2185L34.8245 97.3988L36.9458 99.5201L40.126 96.3399L38.0047 94.2185ZM36.9458 97.3988L25.6925 86.1456L23.5712 88.2669L34.8245 99.5201L36.9458 97.3988Z" fill="#DDDDDD"/>
</g>
<defs>
<clipPath id="clip0_1908_47552">
<rect width="112" height="112" fill="white"/>
</clipPath>
</defs>
</svg>
