<svg width="112" height="112" viewBox="0 0 112 112" fill="none" xmlns="http://www.w3.org/2000/svg">
<g clip-path="url(#clip0_1911_5571)">
<path d="M63.5 77C63.5 77.8863 62.8577 78.9818 61.1804 79.9403C59.5455 80.8745 57.1868 81.5 54.5 81.5C51.8132 81.5 49.4545 80.8745 47.8196 79.9403C46.1423 78.9818 45.5 77.8863 45.5 77C45.5 76.1137 46.1423 75.0182 47.8196 74.0597C49.4545 73.1255 51.8132 72.5 54.5 72.5C57.1868 72.5 59.5455 73.1255 61.1804 74.0597C62.8577 75.0182 63.5 76.1137 63.5 77Z" stroke="#DDDDDD" stroke-width="3"/>
<path d="M124.5 113.5C124.5 125.962 116.95 137.425 104.371 145.841C91.8009 154.25 74.3502 159.5 55 159.5C35.6498 159.5 18.1991 154.25 5.62949 145.841C-6.9501 137.425 -14.5 125.962 -14.5 113.5C-14.5 101.038 -6.9501 89.5751 5.62949 81.1592C18.1991 72.7499 35.6498 67.5 55 67.5C74.3502 67.5 91.8009 72.7499 104.371 81.1592C116.95 89.5751 124.5 101.038 124.5 113.5Z" stroke="#DDDDDD" stroke-width="3"/>
<path d="M75.5 81.5C75.5 83.453 73.6991 85.7073 69.6405 87.5601C65.7151 89.3521 60.1868 90.5 54 90.5C47.8132 90.5 42.2849 89.3521 38.3595 87.5601C34.3009 85.7073 32.5 83.453 32.5 81.5C32.5 79.547 34.3009 77.2927 38.3595 75.4399C42.2849 73.6479 47.8132 72.5 54 72.5C60.1868 72.5 65.7151 73.6479 69.6405 75.4399C73.6991 77.2927 75.5 79.547 75.5 81.5Z" stroke="#DDDDDD" stroke-width="3"/>
<path d="M50 71.1667C49.1716 71.1667 48.5 71.8382 48.5 72.6667C48.5 73.4951 49.1716 74.1667 50 74.1667V71.1667ZM58 74.1667C58.8284 74.1667 59.5 73.4951 59.5 72.6667C59.5 71.8382 58.8284 71.1667 58 71.1667V74.1667ZM77.5 31C77.5 37.0312 73.6947 44.6121 68.6219 50.7907C66.1108 53.8493 63.355 56.4812 60.732 58.3347C58.0624 60.2212 55.7204 61.1667 54 61.1667V64.1667C56.6546 64.1667 59.6251 62.7902 62.4633 60.7847C65.3481 58.7462 68.2955 55.9161 70.9406 52.6944C76.1803 46.3124 80.5 38.06 80.5 31H77.5ZM54 61.1667C52.3099 61.1667 49.9814 60.1685 47.3029 58.1576C44.6774 56.1864 41.9174 53.3943 39.4011 50.1713C34.3185 43.6613 30.5 35.7497 30.5 29.7037H27.5C27.5 36.7489 31.8065 45.3188 37.0364 52.0175C39.6764 55.3988 42.6195 58.3928 45.5018 60.5567C48.3311 62.6808 51.3151 64.1667 54 64.1667V61.1667ZM30.5 29.7037C30.5 16.9612 41.8025 7.5 54 7.5V4.5C40.4242 4.5 27.5 15.0388 27.5 29.7037H30.5ZM54 7.5C66.1423 7.5 77.5 16.9101 77.5 31H80.5C80.5 15.0899 67.631 4.5 54 4.5V7.5ZM62.5 29.3333C62.5 34.0278 58.6944 37.8333 54 37.8333V40.8333C60.3513 40.8333 65.5 35.6846 65.5 29.3333H62.5ZM54 37.8333C49.3056 37.8333 45.5 34.0278 45.5 29.3333H42.5C42.5 35.6846 47.6487 40.8333 54 40.8333V37.8333ZM45.5 29.3333C45.5 24.6389 49.3056 20.8333 54 20.8333V17.8333C47.6487 17.8333 42.5 22.9821 42.5 29.3333H45.5ZM54 20.8333C58.6944 20.8333 62.5 24.6389 62.5 29.3333H65.5C65.5 22.9821 60.3513 17.8333 54 17.8333V20.8333ZM50 74.1667H58V71.1667H50V74.1667Z" fill="#DDDDDD"/>
</g>
<defs>
<clipPath id="clip0_1911_5571">
<rect width="112" height="112" fill="white"/>
</clipPath>
</defs>
</svg>
