<svg width="48" height="48" viewBox="0 0 48 48" fill="none" xmlns="http://www.w3.org/2000/svg">
<g clip-path="url(#clip0_6609_10232)">
<path d="M24 48C37.2548 48 48 37.2548 48 24C48 10.7452 37.2548 0 24 0C10.7452 0 0 10.7452 0 24C0 37.2548 10.7452 48 24 48Z" fill="#333333"/>
<path d="M24.0001 27.6C28.6393 27.6 32.4001 23.8392 32.4001 19.2C32.4001 14.5608 28.6393 10.8 24.0001 10.8C19.3609 10.8 15.6001 14.5608 15.6001 19.2C15.6001 23.8392 19.3609 27.6 24.0001 27.6Z" fill="#666666"/>
<path fill-rule="evenodd" clip-rule="evenodd" d="M16.5978 28.2644C11.7164 30.9006 8.3999 36.063 8.3999 42C8.3999 42.0402 8.40049 42.0804 8.40108 42.1205C8.40167 42.1604 8.40224 42.2004 8.40224 42.2401C12.5975 45.8308 18.0444 48 23.9999 48C29.9554 48 35.4023 45.8308 39.5975 42.2401C39.5975 42.2004 39.5981 42.1604 39.5987 42.1205C39.5993 42.0804 39.5999 42.0402 39.5999 42C39.5999 36.063 36.2833 30.9006 31.402 28.2644C29.4688 30.0846 26.8647 31.2 23.9999 31.2C21.1351 31.2 18.531 30.0846 16.5978 28.2644Z" fill="#666666"/>
</g>
<defs>
<clipPath id="clip0_6609_10232">
<rect width="48" height="48" fill="white"/>
</clipPath>
</defs>
</svg>
