<svg width="32" height="32" viewBox="0 0 32 32" fill="none" xmlns="http://www.w3.org/2000/svg">
<g clip-path="url(#clip0)">
<path d="M4.66994 10.6716C3.56564 10.6716 2.67041 11.5669 2.67041 12.6712V22.0023C2.67041 23.1066 3.56564 24.0018 4.66994 24.0018C5.77424 24.0018 6.66947 23.1066 6.66947 22.0023V12.6712C6.66947 11.5669 5.77424 10.6716 4.66994 10.6716Z" fill="white"/>
<path d="M27.3313 10.6716C26.227 10.6716 25.3318 11.5669 25.3318 12.6712V22.0023C25.3318 23.1066 26.227 24.0018 27.3313 24.0018C28.4356 24.0018 29.3309 23.1066 29.3309 22.0023V12.6712C29.3309 11.5669 28.4357 10.6716 27.3313 10.6716Z" fill="white"/>
<path d="M23.3322 10.6716H8.66897C8.30087 10.6716 8.00244 10.9701 8.00244 11.3382V22.0023C8.00213 23.5862 9.11662 24.9514 10.6685 25.2682V30.0004C10.6685 31.1047 11.5637 31.9999 12.668 31.9999C13.7723 31.9999 14.6676 31.1047 14.6676 30.0004V25.3348H17.3336V30.0004C17.3336 31.1047 18.2289 31.9999 19.3332 31.9999C20.4375 31.9999 21.3327 31.1047 21.3327 30.0004V25.2682C22.8846 24.9514 23.9991 23.5862 23.9988 22.0023V11.3382C23.9987 10.9701 23.7003 10.6716 23.3322 10.6716Z" fill="white"/>
<path fill-rule="evenodd" clip-rule="evenodd" d="M20.8467 2.76954L22.4716 1.14592C22.7364 0.890166 22.7437 0.468265 22.488 0.203452C22.2323 -0.0612986 21.8103 -0.0686094 21.5455 0.187081C21.54 0.192454 21.5345 0.197891 21.5292 0.203452L19.6363 2.09638C17.318 1.08931 14.6856 1.08931 12.3673 2.09638L10.4744 0.20214C10.2097 -0.053613 9.78773 -0.0462397 9.53198 0.218511C9.28254 0.476825 9.28254 0.886292 9.53198 1.14454L11.1556 2.76948C9.17625 4.07917 7.99078 6.29871 8.00302 8.67209C8.00302 9.04019 8.30145 9.33862 8.66956 9.33862H23.3328C23.7009 9.33862 23.9993 9.04019 23.9993 8.67209C24.0115 6.29877 22.826 4.07923 20.8467 2.76954ZM12.6681 6.6726C13.0362 6.6726 13.3346 6.37419 13.3346 6.00607C13.3346 5.63796 13.0362 5.33954 12.6681 5.33954C12.2999 5.33954 12.0015 5.63796 12.0015 6.00607C12.0015 6.37419 12.2999 6.6726 12.6681 6.6726ZM19.9997 6.00607C19.9997 6.37419 19.7012 6.6726 19.3331 6.6726C18.965 6.6726 18.6666 6.37419 18.6666 6.00607C18.6666 5.63796 18.965 5.33954 19.3331 5.33954C19.7012 5.33954 19.9997 5.63796 19.9997 6.00607Z" fill="white"/>
</g>
<defs>
<clipPath id="clip0">
<rect width="32" height="32" fill="white"/>
</clipPath>
</defs>
</svg>
