<svg width="32" height="32" viewBox="0 0 32 32" fill="none" xmlns="http://www.w3.org/2000/svg">
<path d="M11.5785 32.0002C6.81597 31.9727 2.87646 22.2507 2.87646 17.2996C2.87646 9.21181 8.94365 7.44118 11.2819 7.44118C12.3357 7.44118 13.4608 7.855 14.4533 8.22118C15.1473 8.47662 15.865 8.74031 16.2642 8.74031C16.5032 8.74031 17.0662 8.516 17.5633 8.31918C18.6235 7.89712 19.9428 7.37256 21.479 7.37256C21.4818 7.37256 21.4855 7.37256 21.4882 7.37256C22.6353 7.37256 26.1134 7.62431 28.2045 10.7646L28.6943 11.5006L27.9893 12.0326C26.9823 12.7924 25.1448 14.1786 25.1448 16.9242C25.1448 20.1762 27.2258 21.4268 28.2255 22.0283C28.6668 22.2938 29.1237 22.5676 29.1237 23.1663C29.1237 23.5572 26.0035 31.9517 21.4726 31.9517C20.3639 31.9517 19.5802 31.6184 18.889 31.3246C18.1895 31.027 17.5862 30.7707 16.5892 30.7707C16.0838 30.7707 15.4447 31.0096 14.7682 31.2632C13.8436 31.6083 12.7971 32.0002 11.6097 32.0002H11.5785Z" fill="white"/>
<path d="M21.9591 0C22.0771 4.25475 19.0342 7.2065 15.995 7.02138C15.4942 3.62594 19.0339 0 21.9591 0Z" fill="white"/>
</svg>
