<svg width="32" height="32" viewBox="0 0 32 32" fill="none" xmlns="http://www.w3.org/2000/svg">
<g clip-path="url(#clip0)">
<path d="M3.86377 5.57523C11.3017 -3.08072 25.0936 -1.37273 30.2476 8.73921C26.6176 8.74121 20.9357 8.73721 17.8577 8.73921C15.6257 8.73921 14.1837 8.68921 12.6237 9.5112C10.7897 10.4772 9.40374 12.2672 8.92174 14.3712L3.86377 5.57523Z" fill="white"/>
<path d="M10.6777 16.0011C10.6777 18.9351 13.0637 21.3211 15.9957 21.3211C18.9277 21.3211 21.3137 18.9351 21.3137 16.0011C21.3137 13.0671 18.9277 10.6812 15.9957 10.6812C13.0617 10.6792 10.6777 13.0671 10.6777 16.0011Z" fill="white"/>
<path d="M18.0575 22.9653C15.0735 23.8513 11.5795 22.8693 9.66754 19.5653C8.20755 17.0453 4.34757 10.3234 2.59558 7.26538C-3.54838 16.6813 1.74559 29.5113 12.8975 31.7012L18.0575 22.9653Z" fill="white"/>
<path d="M20.9336 10.6792C23.4196 12.9912 23.9616 16.7352 22.2776 19.6372C21.0096 21.8252 16.9597 28.6591 14.9977 31.9671C26.4876 32.6751 34.8636 21.4152 31.0796 10.6772L20.9336 10.6792Z" fill="white"/>
</g>
<defs>
<clipPath id="clip0">
<rect width="32" height="32" fill="white"/>
</clipPath>
</defs>
</svg>
