<svg width="32" height="32" viewBox="0 0 32 32" fill="none" xmlns="http://www.w3.org/2000/svg"><path d="M16 0C7.178 0 0 7.178 0 16s7.178 16 16 16 16-7.178 16-16S24.822 0 16 0Zm3.805 21.795v1.297h-4.497V8.995h1.297v12.8h3.2Zm5.709 3.718a13.283 13.283 0 0 1-9.427 3.892c-3.546 0-6.92-1.383-9.514-3.892-2.508-2.508-3.892-5.88-3.892-9.513 0-7.351 6.054-13.405 13.405-13.405h.606v1.21h-.605a12.032 12.032 0 0 0-8.563 3.546C5.19 9.6 3.978 12.713 3.978 15.914c0 3.286 1.298 6.313 3.546 8.562a11.97 11.97 0 0 0 8.563 3.546c6.4 0 11.675-5.017 12.108-11.33v-.173h-8.303v-1.21h9.6v.605c-.087 3.718-1.47 7.091-3.979 9.6ZM12.8 10.898a1.92 1.92 0 0 1-1.903 1.903 1.92 1.92 0 0 1-1.902-1.903 1.92 1.92 0 0 1 1.902-1.902 1.92 1.92 0 0 1 1.903 1.902Z" fill="#fff"/></svg>