<svg width="32" height="32" viewBox="0 0 32 32" fill="none" xmlns="http://www.w3.org/2000/svg">
<path fill-rule="evenodd" clip-rule="evenodd" d="M32 16C32 24.8366 24.8366 32 16 32C7.16344 32 0 24.8366 0 16C0 7.16344 7.16344 0 16 0C24.8366 0 32 7.16344 32 16ZM2 16C2 23.7196 8.28035 30 16 30C23.7196 30 30 23.7196 30 16C30 8.28036 23.7196 2 16 2C8.28035 2 2 8.28036 2 16ZM7.70672 24.6653C8.7655 25.6791 10.0091 26.5013 11.3813 27.0756L12.0382 25.4101L12.5033 25.5936L11.8464 27.2589C13.0671 27.7107 14.3808 27.9693 15.75 27.9974V26H16.25V27.9974C17.6467 27.9687 18.9856 27.7002 20.227 27.2315L19.5689 25.5806L20.0333 25.3955L20.691 27.0451C22.0427 26.4688 23.2678 25.6514 24.3121 24.6472L23.0643 23.3994L23.4179 23.0458L24.6653 24.2933C25.5885 23.3291 26.3528 22.2116 26.9158 20.9834L25.295 20.2827L25.4934 19.8237L27.1145 20.5246C27.6555 19.2006 27.9664 17.759 27.9974 16.25H26V15.75H27.9974C27.9673 14.2831 27.6726 12.8799 27.1593 11.5865L25.5311 12.2711L25.3373 11.8102L26.9651 11.1257C26.3978 9.85454 25.6158 8.69942 24.6653 7.70675L23.4179 8.95419L23.0643 8.60064L24.3121 7.35281C23.2574 6.33859 22.0182 5.51491 20.6505 4.93777L19.9989 6.58986L19.5337 6.4064L20.1859 4.75308C18.956 4.29388 17.6313 4.03094 16.25 4.00257V6H15.75V4.00256C14.3653 4.031 13.0375 4.29514 11.8052 4.7564L12.4682 6.41935L12.0037 6.60451L11.3407 4.94145C9.98461 5.51496 8.75507 6.33091 7.70672 7.33467L8.97268 8.60063L8.61913 8.95418L7.35279 7.68784C6.42484 8.65283 5.65641 9.77226 5.09036 11.0033L6.74205 11.7173L6.54364 12.1763L4.89103 11.4618C4.34664 12.7896 4.03367 14.2358 4.00257 15.75H6V16.25H4.00257C4.0328 17.722 4.32941 19.1297 4.84604 20.4269L6.50592 19.7289L6.69974 20.1898L5.04074 20.8874C5.61116 22.1615 6.39744 23.3187 7.35278 24.3122L8.61913 23.0458L8.97268 23.3994L7.70672 24.6653ZM13.7666 14.4719L21.7984 9.7479L17.4098 17.9678L9.82157 22.2295L13.7666 14.4719Z" fill="white"/>
</svg>
