<svg width="24" height="24" viewBox="0 0 24 24" fill="none" xmlns="http://www.w3.org/2000/svg">
  <path fill="#DDDDDD" fillRule="evenodd" d="M13.94 17.01c-.06 1.64-1.44 2.96-3.14 2.96-.39 0-.76-.07-1.1-.19.34.13.71.19 1.1.19 1.69 0 3.08-1.32 3.14-2.96l.01-14.64h2.74a5.065 5.065 0 0 0 2.28 3.33c.82.52 1.79.82 2.83.82v3.65c-1.94 0-3.74-.61-5.2-1.63v7.43c0 3.71-3.09 6.73-6.88 6.73a6.89 6.89 0 0 1-3.94-1.22c-1.77-1.22-2.94-3.23-2.94-5.51 0-3.71 3.09-6.73 6.88-6.73.31 0 .62.03.93.07v3.73c-.29-.09-.6-.14-.93-.14-1.73 0-3.14 1.38-3.14 3.07 0 1.18.68 2.2 1.68 2.72.44.22.93.35 1.46.35 1.69 0 3.07-1.32 3.14-2.96l.01-14.64h3.74c0 .32.03.63.09.93h-2.74l-.02 14.64Z" clipRule="evenodd"
  />
</svg>